{
  "accessors": [
    {
      "bufferView": 2,
      "componentType": 5126,
      "count": 65532,
      "max": [
        0.3531179130077362,
        1.9359301328659058,
        2.7188122272491455
      ],
      "min": [
        -1.2592869997024536,
        -1.2997703552246094,
        -2.722784996032715
      ],
      "type": "VEC3"
    },
    {
      "bufferView": 2,
      "byteOffset": 786384,
      "componentType": 5126,
      "count": 65532,
      "max": [
        0.9995962977409363,
        0.9999995231628418,
        0.9999882578849792
      ],
      "min": [
        -0.9999998211860657,
        -0.9999173283576965,
        -1.0
      ],
      "type": "VEC3"
    },
    {
      "bufferView": 1,
      "componentType": 5126,
      "count": 65532,
      "max": [
        0.9934507608413696,
        1.0
      ],
      "min": [
        0.0,
        0.040246009826660156
      ],
      "type": "VEC2"
    },
    {
      "bufferView": 0,
      "componentType": 5125,
      "count": 66132,
      "type": "SCALAR"
    },
    {
      "bufferView": 2,
      "byteOffset": 1572768,
      "componentType": 5126,
      "count": 65532,
      "max": [
        0.32855141162872314,
        1.9362999200820923,
        2.7100391387939453
      ],
      "min": [
        -1.2582128047943115,
        -1.2983698844909668,
        -2.6604013442993164
      ],
      "type": "VEC3"
    },
    {
      "bufferView": 2,
      "byteOffset": 2359152,
      "componentType": 5126,
      "count": 65532,
      "max": [
        0.6683024168014526,
        0.999998927116394,
        0.9902850389480591
      ],
      "min": [
        -1.0,
        -0.9981218576431274,
        -0.999697208404541
      ],
      "type": "VEC3"
    },
    {
      "bufferView": 1,
      "byteOffset": 524256,
      "componentType": 5126,
      "count": 65532,
      "max": [
        0.8941951394081116,
        0.9973969459533691
      ],
      "min": [
        0.00036618858575820923,
        0.07267892360687256
      ],
      "type": "VEC2"
    },
    {
      "bufferView": 0,
      "byteOffset": 264528,
      "componentType": 5125,
      "count": 65532,
      "type": "SCALAR"
    },
    {
      "bufferView": 2,
      "byteOffset": 3145536,
      "componentType": 5126,
      "count": 65532,
      "max": [
        0.3406485319137573,
        1.9358274936676025,
        1.8818362951278687
      ],
      "min": [
        -0.3854478895664215,
        -1.232564091682434,
        -2.7225515842437744
      ],
      "type": "VEC3"
    },
    {
      "bufferView": 2,
      "byteOffset": 3931920,
      "componentType": 5126,
      "count": 65532,
      "max": [
        0.9314208626747131,
        0.9999989867210388,
        0.9935451745986938
      ],
      "min": [
        -0.9999997019767761,
        -0.9961761236190796,
        -0.43786323070526123
      ],
      "type": "VEC3"
    },
    {
      "bufferView": 1,
      "byteOffset": 1048512,
      "componentType": 5126,
      "count": 65532,
      "max": [
        0.870099663734436,
        0.9969866275787354
      ],
      "min": [
        0.0017354357987642288,
        0.04839247465133667
      ],
      "type": "VEC2"
    },
    {
      "bufferView": 0,
      "byteOffset": 526656,
      "componentType": 5125,
      "count": 65532,
      "type": "SCALAR"
    },
    {
      "bufferView": 2,
      "byteOffset": 4718304,
      "componentType": 5126,
      "count": 13845,
      "max": [
        0.29160624742507935,
        0.49457308650016785,
        2.57232403755188
      ],
      "min": [
        -0.4059835970401764,
        -1.2361546754837036,
        -0.38953787088394165
      ],
      "type": "VEC3"
    },
    {
      "bufferView": 2,
      "byteOffset": 4884444,
      "componentType": 5126,
      "count": 13845,
      "max": [
        0.6762266755104065,
        0.9999997615814209,
        0.4609697759151459
      ],
      "min": [
        -0.9999986290931702,
        -0.9416937232017517,
        -0.9998535513877869
      ],
      "type": "VEC3"
    },
    {
      "bufferView": 1,
      "byteOffset": 1572768,
      "componentType": 5126,
      "count": 13845,
      "max": [
        0.7927217483520508,
        0.8187506198883057
      ],
      "min": [
        0.5578932166099548,
        0.45339328050613403
      ],
      "type": "VEC2"
    },
    {
      "bufferView": 0,
      "byteOffset": 788784,
      "componentType": 5125,
      "count": 13845,
      "type": "SCALAR"
    }
  ],
  "asset": {
    "extras": {
      "author": "Alben Tan (https://sketchfab.com/albentan2012)",
      "license": "CC-BY-4.0 (http://creativecommons.org/licenses/by/4.0/)",
      "source": "https://sketchfab.com/3d-models/commercial-front-with-garage-door-philippines-a1ecd9e87c95444dbff19cfb82c4020b",
      "title": "Commercial Front With Garage Door, Philippines"
    },
    "generator": "Sketchfab-13.68.0",
    "version": "2.0"
  },
  "bufferViews": [
    {
      "buffer": 0,
      "byteLength": 844164,
      "name": "floatBufferViews",
      "target": 34963
    },
    {
      "buffer": 0,
      "byteLength": 1683528,
      "byteOffset": 844164,
      "byteStride": 8,
      "name": "floatBufferViews",
      "target": 34962
    },
    {
      "buffer": 0,
      "byteLength": 5050584,
      "byteOffset": 2527692,
      "byteStride": 12,
      "name": "floatBufferViews",
      "target": 34962
    }
  ],
  "buffers": [
    {
      "byteLength": 7578276,
      "uri": "e.bin"
    }
  ],
  "images": [
    {
      "uri": "textures/Material_0.009_baseColor.jpeg"
    }
  ],
  "materials": [
    {
      "name": "Material_0.009",
      "pbrMetallicRoughness": {
        "baseColorTexture": {
          "index": 0
        },
        "metallicFactor": 0.0
      }
    }
  ],
  "meshes": [
    {
      "name": "Object_0",
      "primitives": [
        {
          "attributes": {
            "NORMAL": 1,
            "POSITION": 0,
            "TEXCOORD_0": 2
          },
          "indices": 3,
          "material": 0,
          "mode": 4
        }
      ]
    },
    {
      "name": "Object_1",
      "primitives": [
        {
          "attributes": {
            "NORMAL": 5,
            "POSITION": 4,
            "TEXCOORD_0": 6
          },
          "indices": 7,
          "material": 0,
          "mode": 4
        }
      ]
    },
    {
      "name": "Object_2",
      "primitives": [
        {
          "attributes": {
            "NORMAL": 9,
            "POSITION": 8,
            "TEXCOORD_0": 10
          },
          "indices": 11,
          "material": 0,
          "mode": 4
        }
      ]
    },
    {
      "name": "Object_3",
      "primitives": [
        {
          "attributes": {
            "NORMAL": 13,
            "POSITION": 12,
            "TEXCOORD_0": 14
          },
          "indices": 15,
          "material": 0,
          "mode": 4
        }
      ]
    }
  ],
  "nodes": [
    {
      "children": [
        1
      ],
      "matrix": [
        1.0,
        0.0,
        0.0,
        0.0,
        0.0,
        2.220446049250313e-16,
        -1.0,
        0.0,
        0.0,
        1.0,
        2.220446049250313e-16,
        0.0,
        0.0,
        0.0,
        0.0,
        1.0
      ],
      "name": "Sketchfab_model"
    },
    {
      "children": [
        2
      ],
      "name": "root"
    },
    {
      "children": [
        3
      ],
      "matrix": [
        1.0,
        0.0,
        0.0,
        0.0,
        0.0,
        2.220446049250313e-16,
        1.0,
        0.0,
        0.0,
        -1.0,
        2.220446049250313e-16,
        0.0,
        0.0,
        0.0,
        0.0,
        1.0
      ],
      "name": "GLTF_SceneRootNode"
    },
    {
      "children": [
        4,
        5,
        6,
        7
      ],
      "name": "Mesh_0.009_0"
    },
    {
      "mesh": 0,
      "name": "Object_4"
    },
    {
      "mesh": 1,
      "name": "Object_5"
    },
    {
      "mesh": 2,
      "name": "Object_6"
    },
    {
      "mesh": 3,
      "name": "Object_7"
    }
  ],
  "samplers": [
    {
      "magFilter": 9729,
      "minFilter": 9987,
      "wrapS": 10497,
      "wrapT": 10497
    }
  ],
  "scene": 0,
  "scenes": [
    {
      "name": "Sketchfab_Scene",
      "nodes": [
        0
      ]
    }
  ],
  "textures": [
    {
      "sampler": 0,
      "source": 0
    }
  ]
}
