{
  "accessors": [
    {
      "bufferView": 2,
      "componentType": 5126,
      "count": 2187,
      "max": [
        1.0151288509368896,
        1.0412348508834839,
        0.8079460859298706
      ],
      "min": [
        -1.0151289701461792,
        -1.0412348508834839,
        -1.4590975046157837
      ],
      "type": "VEC3"
    },
    {
      "bufferView": 2,
      "byteOffset": 26244,
      "componentType": 5126,
      "count": 2187,
      "max": [
        1.0,
        1.0,
        1.0
      ],
      "min": [
        -0.9997424483299255,
        -1.0,
        -1.0
      ],
      "type": "VEC3"
    },
    {
      "bufferView": 3,
      "componentType": 5126,
      "count": 2187,
      "max": [
        1.0,
        0.9998944997787476,
        1.0,
        1.0
      ],
      "min": [
        -1.0,
        -0.9998604655265808,
        -1.0,
        -1.0
      ],
      "type": "VEC4"
    },
    {
      "bufferView": 1,
      "componentType": 5126,
      "count": 2187,
      "max": [
        0.9832496643066406,
        0.9981281757354736
      ],
      "min": [
        0.005469702184200287,
        0.012913962826132774
      ],
      "type": "VEC2"
    },
    {
      "bufferView": 1,
      "byteOffset": 17496,
      "componentType": 5126,
      "count": 2187,
      "max": [
        0.9832496643066406,
        0.9981281757354736
      ],
      "min": [
        0.005469702184200287,
        0.012913962826132774
      ],
      "type": "VEC2"
    },
    {
      "bufferView": 1,
      "byteOffset": 34992,
      "componentType": 5126,
      "count": 2187,
      "max": [
        0.9832496643066406,
        0.9981281757354736
      ],
      "min": [
        0.005469702184200287,
        0.012913962826132774
      ],
      "type": "VEC2"
    },
    {
      "bufferView": 0,
      "componentType": 5125,
      "count": 5268,
      "type": "SCALAR"
    }
  ],
  "asset": {
    "extras": {
      "author": "Erin (https://sketchfab.com/erin044)",
      "license": "CC-BY-4.0 (http://creativecommons.org/licenses/by/4.0/)",
      "source": "https://sketchfab.com/3d-models/petron-gas-a193c1f766b84bfbaa3ed492f694d87e",
      "title": "Petron Gas"
    },
    "generator": "Sketchfab-16.32.0",
    "version": "2.0"
  },
  "bufferViews": [
    {
      "buffer": 0,
      "byteLength": 21072,
      "name": "floatBufferViews",
      "target": 34963
    },
    {
      "buffer": 0,
      "byteLength": 52488,
      "byteOffset": 21072,
      "byteStride": 8,
      "name": "floatBufferViews",
      "target": 34962
    },
    {
      "buffer": 0,
      "byteLength": 52488,
      "byteOffset": 73560,
      "byteStride": 12,
      "name": "floatBufferViews",
      "target": 34962
    },
    {
      "buffer": 0,
      "byteLength": 34992,
      "byteOffset": 126048,
      "byteStride": 16,
      "name": "floatBufferViews",
      "target": 34962
    }
  ],
  "buffers": [
    {
      "byteLength": 161040,
      "uri": "scene.bin"
    }
  ],
  "images": [
    {
      "uri": "textures/Gasul_Mat_baseColor.png"
    },
    {
      "uri": "textures/Gasul_Mat_metallicRoughness.png"
    },
    {
      "uri": "textures/Gasul_Mat_normal.png"
    }
  ],
  "materials": [
    {
      "doubleSided": true,
      "name": "Gasul_Mat",
      "normalTexture": {
        "index": 2
      },
      "pbrMetallicRoughness": {
        "baseColorTexture": {
          "index": 0
        },
        "metallicRoughnessTexture": {
          "index": 1
        }
      }
    }
  ],
  "meshes": [
    {
      "name": "Old-Petron-Gasul_Gasul_Mat_0",
      "primitives": [
        {
          "attributes": {
            "NORMAL": 1,
            "POSITION": 0,
            "TANGENT": 2,
            "TEXCOORD_0": 3,
            "TEXCOORD_1": 4,
            "TEXCOORD_2": 5
          },
          "indices": 6,
          "material": 0,
          "mode": 4
        }
      ]
    }
  ],
  "nodes": [
    {
      "children": [
        1
      ],
      "matrix": [
        1.0,
        0.0,
        0.0,
        0.0,
        0.0,
        2.220446049250313e-16,
        -1.0,
        0.0,
        0.0,
        1.0,
        2.220446049250313e-16,
        0.0,
        0.0,
        0.0,
        0.0,
        1.0
      ],
      "name": "Sketchfab_model"
    },
    {
      "children": [
        2
      ],
      "matrix": [
        0.009999999776482582,
        0.0,
        0.0,
        0.0,
        0.0,
        0.0,
        0.009999999776482582,
        0.0,
        0.0,
        -0.009999999776482582,
        0.0,
        0.0,
        0.0,
        0.0,
        0.0,
        1.0
      ],
      "name": "8c0b91c0e9a045ebb8df998c172faa54.fbx"
    },
    {
      "children": [
        3
      ],
      "name": "RootNode"
    },
    {
      "children": [
        4
      ],
      "matrix": [
        -152.71231079101386,
        1.870186709725313e-14,
        2.3058917399966644e-05,
        0.0,
        2.079741339294019e-05,
        1.0398706749202975e-05,
        137.7350463867168,
        0.0,
        -5.2520702529361996e-12,
        465.71636962890483,
        -3.516060776742322e-05,
        0.0,
        0.0,
        2172.624755859375,
        90.89313507080078,
        1.0
      ],
      "name": "Old-Petron-Gasul"
    },
    {
      "mesh": 0,
      "name": "Old-Petron-Gasul_Gasul_Mat_0"
    }
  ],
  "samplers": [
    {
      "magFilter": 9729,
      "minFilter": 9987,
      "wrapS": 10497,
      "wrapT": 10497
    }
  ],
  "scene": 0,
  "scenes": [
    {
      "name": "Sketchfab_Scene",
      "nodes": [
        0
      ]
    }
  ],
  "textures": [
    {
      "sampler": 0,
      "source": 0
    },
    {
      "sampler": 0,
      "source": 1
    },
    {
      "sampler": 0,
      "source": 2
    }
  ]
}
