{
  "accessors": [
    {
      "bufferView": 2,
      "componentType": 5126,
      "count": 316,
      "max": [
        0.4853796064853668,
        0.48342615365982056,
        1.1742130517959595
      ],
      "min": [
        -0.4853796064853668,
        -0.5309775471687317,
        -0.01589307188987732
      ],
      "type": "VEC3"
    },
    {
      "bufferView": 2,
      "byteOffset": 3792,
      "componentType": 5126,
      "count": 316,
      "max": [
        0.967294454574585,
        0.9672940969467163,
        1.0
      ],
      "min": [
        -0.967294454574585,
        -0.9672937989234924,
        -0.9672943353652954
      ],
      "type": "VEC3"
    },
    {
      "bufferView": 1,
      "componentType": 5126,
      "count": 316,
      "max": [
        1.0397095680236816,
        1.0397095680236816
      ],
      "min": [
        0.09441608190536499,
        -0.29163867235183716
      ],
      "type": "VEC2"
    },
    {
      "bufferView": 0,
      "componentType": 5125,
      "count": 1092,
      "type": "SCALAR"
    },
    {
      "bufferView": 2,
      "byteOffset": 7584,
      "componentType": 5126,
      "count": 628,
      "max": [
        0.4853796064853668,
        0.48342615365982056,
        1.1742130517959595
      ],
      "min": [
        -0.4853796064853668,
        -0.5309775471687317,
        -0.01589307188987732
      ],
      "type": "VEC3"
    },
    {
      "bufferView": 2,
      "byteOffset": 15120,
      "componentType": 5126,
      "count": 628,
      "max": [
        0.967294454574585,
        0.9672942757606506,
        0.9922298789024353
      ],
      "min": [
        -0.967294454574585,
        -1.0,
        -0.9672943353652954
      ],
      "type": "VEC3"
    },
    {
      "bufferView": 1,
      "byteOffset": 2528,
      "componentType": 5126,
      "count": 628,
      "max": [
        1.1543426513671875,
        1.1543426513671875
      ],
      "min": [
        0.1127575933933258,
        -0.23351728916168213
      ],
      "type": "VEC2"
    },
    {
      "bufferView": 0,
      "byteOffset": 4368,
      "componentType": 5125,
      "count": 2154,
      "type": "SCALAR"
    },
    {
      "bufferView": 2,
      "byteOffset": 22656,
      "componentType": 5126,
      "count": 134,
      "max": [
        0.36806321144104004,
        -0.5265706181526184,
        0.6664133667945862
      ],
      "min": [
        -0.36806321144104004,
        -0.5489034652709961,
        0.32181501388549805
      ],
      "type": "VEC3"
    },
    {
      "bufferView": 2,
      "byteOffset": 24264,
      "componentType": 5126,
      "count": 134,
      "max": [
        0.9968960881233215,
        -0.00042530905921012163,
        0.996896505355835
      ],
      "min": [
        -0.9968960881233215,
        -0.9876051545143127,
        -0.996895968914032
      ],
      "type": "VEC3"
    },
    {
      "bufferView": 1,
      "byteOffset": 7552,
      "componentType": 5126,
      "count": 134,
      "max": [
        0.8154634237289429,
        0.3273898959159851
      ],
      "min": [
        0.20993423461914063,
        0.04626953601837158
      ],
      "type": "VEC2"
    },
    {
      "bufferView": 0,
      "byteOffset": 12984,
      "componentType": 5125,
      "count": 498,
      "type": "SCALAR"
    },
    {
      "bufferView": 2,
      "byteOffset": 25872,
      "componentType": 5126,
      "count": 1156,
      "max": [
        0.4448224902153015,
        0.3881046175956726,
        1.1910040378570557
      ],
      "min": [
        -0.4416784644126892,
        -0.5896747708320618,
        0.7536236643791199
      ],
      "type": "VEC3"
    },
    {
      "bufferView": 2,
      "byteOffset": 39744,
      "componentType": 5126,
      "count": 1156,
      "max": [
        1.0,
        1.0,
        1.0
      ],
      "min": [
        -1.0,
        -1.0,
        -1.0
      ],
      "type": "VEC3"
    },
    {
      "bufferView": 1,
      "byteOffset": 8624,
      "componentType": 5126,
      "count": 1156,
      "max": [
        1.0288333892822266,
        1.077592372894287
      ],
      "min": [
        0.14673683047294617,
        0.2688424289226532
      ],
      "type": "VEC2"
    },
    {
      "bufferView": 0,
      "byteOffset": 14976,
      "componentType": 5125,
      "count": 4152,
      "type": "SCALAR"
    },
    {
      "bufferView": 2,
      "byteOffset": 53616,
      "componentType": 5126,
      "count": 2600,
      "max": [
        0.38080552220344543,
        0.1765967160463333,
        1.6346435546875
      ],
      "min": [
        -0.38080552220344543,
        -0.44598114490509033,
        0.9722188115119934
      ],
      "type": "VEC3"
    },
    {
      "bufferView": 2,
      "byteOffset": 84816,
      "componentType": 5126,
      "count": 2600,
      "max": [
        1.0,
        1.0,
        1.0
      ],
      "min": [
        -1.0,
        -1.0,
        -1.0
      ],
      "type": "VEC3"
    },
    {
      "bufferView": 1,
      "byteOffset": 17872,
      "componentType": 5126,
      "count": 2600,
      "max": [
        0.7294469475746155,
        0.7039520740509033
      ],
      "min": [
        0.23589935898780823,
        0.23594143986701965
      ],
      "type": "VEC2"
    },
    {
      "bufferView": 0,
      "byteOffset": 31584,
      "componentType": 5125,
      "count": 9294,
      "type": "SCALAR"
    },
    {
      "bufferView": 2,
      "byteOffset": 116016,
      "componentType": 5126,
      "count": 32,
      "max": [
        0.03609001636505127,
        -0.027266010642051697,
        0.9722188115119934
      ],
      "min": [
        -0.03609001636505127,
        -0.09944604337215424,
        0.9722188115119934
      ],
      "type": "VEC3"
    },
    {
      "bufferView": 2,
      "byteOffset": 116400,
      "componentType": 5126,
      "count": 32,
      "max": [
        -8.590164952693158e-07,
        0.0,
        1.0
      ],
      "min": [
        -8.590164952693158e-07,
        0.0,
        1.0
      ],
      "type": "VEC3"
    },
    {
      "bufferView": 1,
      "byteOffset": 38672,
      "componentType": 5126,
      "count": 32,
      "max": [
        0.5217676758766174,
        0.4882393181324005
      ],
      "min": [
        0.47803640365600586,
        0.44450804591178894
      ],
      "type": "VEC2"
    },
    {
      "bufferView": 0,
      "byteOffset": 68760,
      "componentType": 5125,
      "count": 90,
      "type": "SCALAR"
    },
    {
      "bufferView": 2,
      "byteOffset": 116784,
      "componentType": 5126,
      "count": 460,
      "max": [
        0.4853796064853668,
        0.48342615365982056,
        1.1742130517959595
      ],
      "min": [
        -0.4853796064853668,
        -0.5309775471687317,
        -0.01589307188987732
      ],
      "type": "VEC3"
    },
    {
      "bufferView": 2,
      "byteOffset": 122304,
      "componentType": 5126,
      "count": 460,
      "max": [
        0.967294454574585,
        0.9672940969467163,
        1.0
      ],
      "min": [
        -0.967294454574585,
        -0.9672937989234924,
        -1.0
      ],
      "type": "VEC3"
    },
    {
      "bufferView": 1,
      "byteOffset": 38928,
      "componentType": 5126,
      "count": 460,
      "max": [
        0.7960183024406433,
        0.7960183024406433
      ],
      "min": [
        0.18468961119651794,
        -0.29182136058807373
      ],
      "type": "VEC2"
    },
    {
      "bufferView": 0,
      "byteOffset": 69120,
      "componentType": 5125,
      "count": 1524,
      "type": "SCALAR"
    }
  ],
  "asset": {
    "extras": {
      "author": "GameDevMoot (https://sketchfab.com/GameDevMoot)",
      "license": "CC-BY-4.0 (http://creativecommons.org/licenses/by/4.0/)",
      "source": "https://sketchfab.com/3d-models/kitchen-oven-and-sink-set-low-poly-4907f6a11e874b4daa90b8bef4fc83c0",
      "title": "Kitchen Oven and Sink Set Low Poly"
    },
    "generator": "Sketchfab-16.7.0",
    "version": "2.0"
  },
  "bufferViews": [
    {
      "buffer": 0,
      "byteLength": 75216,
      "name": "floatBufferViews",
      "target": 34963
    },
    {
      "buffer": 0,
      "byteLength": 42608,
      "byteOffset": 75216,
      "byteStride": 8,
      "name": "floatBufferViews",
      "target": 34962
    },
    {
      "buffer": 0,
      "byteLength": 127824,
      "byteOffset": 117824,
      "byteStride": 12,
      "name": "floatBufferViews",
      "target": 34962
    }
  ],
  "buffers": [
    {
      "byteLength": 245648,
      "uri": "scene.bin"
    }
  ],
  "extensionsUsed": [
    "KHR_materials_specular"
  ],
  "materials": [
    {
      "doubleSided": true,
      "name": "plastic",
      "pbrMetallicRoughness": {
        "baseColorFactor": [
          0.14758262294780816,
          0.14758262294780816,
          0.14758262294780816,
          1.0
        ],
        "metallicFactor": 0.46171569284782576,
        "roughnessFactor": 0.7333325206324439
      }
    },
    {
      "doubleSided": true,
      "extensions": {
        "KHR_materials_specular": {
          "specularColorFactor": [
            1.0,
            1.0,
            1.0
          ],
          "specularFactor": 1.0
        }
      },
      "name": "glass",
      "pbrMetallicRoughness": {
        "baseColorFactor": [
          0.0471583,
          0.12199399999999995,
          0.174346,
          1.0
        ],
        "roughnessFactor": 0.0
      }
    },
    {
      "doubleSided": true,
      "name": "Metal",
      "pbrMetallicRoughness": {
        "baseColorFactor": [
          0.14758262294780816,
          0.14758262294780816,
          0.14758262294780816,
          1.0
        ],
        "metallicFactor": 0.9188599431922078,
        "roughnessFactor": 0.34323609367190455
      }
    },
    {
      "doubleSided": true,
      "extensions": {
        "KHR_materials_specular": {
          "specularColorFactor": [
            1.0,
            1.0,
            1.0
          ],
          "specularFactor": 0.0
        }
      },
      "name": "black",
      "pbrMetallicRoughness": {
        "baseColorFactor": [
          0.0,
          0.0,
          0.0,
          1.0
        ],
        "metallicFactor": 0.0
      }
    }
  ],
  "meshes": [
    {
      "name": "Kitchen_Surface_plastic_0",
      "primitives": [
        {
          "attributes": {
            "NORMAL": 1,
            "POSITION": 0,
            "TEXCOORD_0": 2
          },
          "indices": 3,
          "material": 0,
          "mode": 4
        }
      ]
    },
    {
      "name": "Oven_plastic_0",
      "primitives": [
        {
          "attributes": {
            "NORMAL": 5,
            "POSITION": 4,
            "TEXCOORD_0": 6
          },
          "indices": 7,
          "material": 0,
          "mode": 4
        }
      ]
    },
    {
      "name": "Oven_glass_0",
      "primitives": [
        {
          "attributes": {
            "NORMAL": 9,
            "POSITION": 8,
            "TEXCOORD_0": 10
          },
          "indices": 11,
          "material": 1,
          "mode": 4
        }
      ]
    },
    {
      "name": "Oven_Metal_0",
      "primitives": [
        {
          "attributes": {
            "NORMAL": 13,
            "POSITION": 12,
            "TEXCOORD_0": 14
          },
          "indices": 15,
          "material": 2,
          "mode": 4
        }
      ]
    },
    {
      "name": "Sink_Metal_0",
      "primitives": [
        {
          "attributes": {
            "NORMAL": 17,
            "POSITION": 16,
            "TEXCOORD_0": 18
          },
          "indices": 19,
          "material": 2,
          "mode": 4
        }
      ]
    },
    {
      "name": "Sink_black_0",
      "primitives": [
        {
          "attributes": {
            "NORMAL": 21,
            "POSITION": 20,
            "TEXCOORD_0": 22
          },
          "indices": 23,
          "material": 3,
          "mode": 4
        }
      ]
    },
    {
      "name": "Sink_plastic_0",
      "primitives": [
        {
          "attributes": {
            "NORMAL": 25,
            "POSITION": 24,
            "TEXCOORD_0": 26
          },
          "indices": 27,
          "material": 0,
          "mode": 4
        }
      ]
    }
  ],
  "nodes": [
    {
      "children": [
        1
      ],
      "matrix": [
        1.0,
        0.0,
        0.0,
        0.0,
        0.0,
        2.220446049250313e-16,
        -1.0,
        0.0,
        0.0,
        1.0,
        2.220446049250313e-16,
        0.0,
        0.0,
        0.0,
        0.0,
        1.0
      ],
      "name": "Sketchfab_model"
    },
    {
      "children": [
        2
      ],
      "matrix": [
        0.009999999776482582,
        0.0,
        0.0,
        0.0,
        0.0,
        0.0,
        0.009999999776482582,
        0.0,
        0.0,
        -0.009999999776482582,
        0.0,
        0.0,
        0.0,
        0.0,
        0.0,
        1.0
      ],
      "name": "a197edc3f3044ce0b2c3f0c4ad14886f.fbx"
    },
    {
      "children": [
        3,
        5,
        9
      ],
      "name": "RootNode"
    },
    {
      "children": [
        4
      ],
      "matrix": [
        100.0,
        0.0,
        0.0,
        0.0,
        -0.0,
        -2.8212996916465727e-05,
        -99.99999999999602,
        0.0,
        0.0,
        99.99999999999602,
        -2.8212996916465727e-05,
        0.0,
        -96.40190887451172,
        0.0,
        0.0,
        1.0
      ],
      "name": "Kitchen_Surface"
    },
    {
      "mesh": 0,
      "name": "Kitchen_Surface_plastic_0"
    },
    {
      "children": [
        6,
        7,
        8
      ],
      "matrix": [
        100.0,
        0.0,
        0.0,
        0.0,
        0.0,
        -2.8212996916465727e-05,
        -99.99999999999602,
        0.0,
        0.0,
        99.99999999999602,
        -2.8212996916465727e-05,
        0.0,
        0.0,
        0.0,
        0.0,
        1.0
      ],
      "name": "Oven"
    },
    {
      "mesh": 1,
      "name": "Oven_plastic_0"
    },
    {
      "mesh": 2,
      "name": "Oven_glass_0"
    },
    {
      "mesh": 3,
      "name": "Oven_Metal_0"
    },
    {
      "children": [
        10,
        11,
        12
      ],
      "matrix": [
        100.0,
        0.0,
        0.0,
        0.0,
        0.0,
        -2.8212996916465727e-05,
        -99.99999999999602,
        0.0,
        0.0,
        99.99999999999602,
        -2.8212996916465727e-05,
        0.0,
        96.55196380615234,
        0.0,
        0.0,
        1.0
      ],
      "name": "Sink"
    },
    {
      "mesh": 4,
      "name": "Sink_Metal_0"
    },
    {
      "mesh": 5,
      "name": "Sink_black_0"
    },
    {
      "mesh": 6,
      "name": "Sink_plastic_0"
    }
  ],
  "scene": 0,
  "scenes": [
    {
      "name": "Sketchfab_Scene",
      "nodes": [
        0
      ]
    }
  ]
}
