{
  "accessors": [
    {
      "bufferView": 2,
      "componentType": 5126,
      "count": 355,
      "max": [
        0.8256217837333679,
        0.17135640978813171,
        2.2872626781463623
      ],
      "min": [
        -0.8256217837333679,
        -0.18766142427921295,
        -0.00603117048740387
      ],
      "type": "VEC3"
    },
    {
      "bufferView": 2,
      "byteOffset": 4260,
      "componentType": 5126,
      "count": 355,
      "max": [
        0.9855563044548035,
        1.0,
        0.9855552911758423
      ],
      "min": [
        -1.0,
        -1.0,
        -1.0
      ],
      "type": "VEC3"
    },
    {
      "bufferView": 1,
      "componentType": 5126,
      "count": 355,
      "max": [
        1.2490904331207275,
        1.284834623336792
      ],
      "min": [
        -0.249090313911438,
        -0.7958810925483704
      ],
      "type": "VEC2"
    },
    {
      "bufferView": 0,
      "componentType": 5125,
      "count": 849,
      "type": "SCALAR"
    },
    {
      "bufferView": 2,
      "byteOffset": 8520,
      "componentType": 5126,
      "count": 1362,
      "max": [
        0.035403892397880554,
        0.6178958415985107,
        2.102461576461792
      ],
      "min": [
        -0.035403892397880554,
        -0.6270933747291565,
        -0.0023559927940368652
      ],
      "type": "VEC3"
    },
    {
      "bufferView": 2,
      "byteOffset": 24864,
      "componentType": 5126,
      "count": 1362,
      "max": [
        1.0,
        1.0,
        1.0
      ],
      "min": [
        -1.0,
        -1.0,
        -1.0
      ],
      "type": "VEC3"
    },
    {
      "bufferView": 1,
      "byteOffset": 2840,
      "componentType": 5126,
      "count": 1362,
      "max": [
        1.7306320667266846,
        1.7309658527374268
      ],
      "min": [
        -0.7312984466552734,
        -0.7309648990631104
      ],
      "type": "VEC2"
    },
    {
      "bufferView": 0,
      "byteOffset": 3396,
      "componentType": 5125,
      "count": 4272,
      "type": "SCALAR"
    },
    {
      "bufferView": 2,
      "byteOffset": 41208,
      "componentType": 5126,
      "count": 3408,
      "max": [
        0.07653035223484039,
        -0.38067275285720825,
        1.211135983467102
      ],
      "min": [
        -0.07653035223484039,
        -0.5469497442245483,
        0.8712755441665649
      ],
      "type": "VEC3"
    },
    {
      "bufferView": 2,
      "byteOffset": 82104,
      "componentType": 5126,
      "count": 3408,
      "max": [
        1.0,
        1.0,
        1.0
      ],
      "min": [
        -1.0,
        -1.0,
        -1.0
      ],
      "type": "VEC3"
    },
    {
      "bufferView": 1,
      "byteOffset": 13736,
      "componentType": 5126,
      "count": 3408,
      "max": [
        0.6876214146614075,
        0.5474001169204712
      ],
      "min": [
        0.4587426781654358,
        0.06687155365943909
      ],
      "type": "VEC2"
    },
    {
      "bufferView": 0,
      "byteOffset": 20484,
      "componentType": 5125,
      "count": 13944,
      "type": "SCALAR"
    }
  ],
  "asset": {
    "extras": {
      "author": "GameDevMoot (https://sketchfab.com/GameDevMoot)",
      "license": "CC-BY-4.0 (http://creativecommons.org/licenses/by/4.0/)",
      "source": "https://sketchfab.com/3d-models/wooden-door-and-frame-4b2791977bbc4c23bcb7fb7c0cd61d54",
      "title": "Wooden Door and Frame"
    },
    "generator": "Sketchfab-16.7.0",
    "version": "2.0"
  },
  "bufferViews": [
    {
      "buffer": 0,
      "byteLength": 76260,
      "name": "floatBufferViews",
      "target": 34963
    },
    {
      "buffer": 0,
      "byteLength": 41000,
      "byteOffset": 76260,
      "byteStride": 8,
      "name": "floatBufferViews",
      "target": 34962
    },
    {
      "buffer": 0,
      "byteLength": 123000,
      "byteOffset": 117260,
      "byteStride": 12,
      "name": "floatBufferViews",
      "target": 34962
    }
  ],
  "buffers": [
    {
      "byteLength": 240260,
      "uri": "scene.bin"
    }
  ],
  "extensionsUsed": [
    "KHR_materials_specular"
  ],
  "materials": [
    {
      "doubleSided": true,
      "extensions": {
        "KHR_materials_specular": {
          "specularColorFactor": [
            1.0,
            1.0,
            1.0
          ],
          "specularFactor": 0.09600029257232022
        }
      },
      "name": "Wallwhite",
      "pbrMetallicRoughness": {
        "baseColorFactor": [
          0.09760766351008722,
          0.04939198383449611,
          0.023210265712099987,
          1.0
        ],
        "metallicFactor": 0.0,
        "roughnessFactor": 0.5992368738647584
      }
    },
    {
      "doubleSided": true,
      "extensions": {
        "KHR_materials_specular": {
          "specularColorFactor": [
            1.0,
            1.0,
            1.0
          ],
          "specularFactor": 0.09600029257232022
        }
      },
      "name": "Wood",
      "pbrMetallicRoughness": {
        "baseColorFactor": [
          0.10286909763063108,
          0.0388524146176885,
          0.022308260421424253,
          1.0
        ],
        "metallicFactor": 0.0,
        "roughnessFactor": 0.40418866038448886
      }
    },
    {
      "doubleSided": true,
      "extensions": {
        "KHR_materials_specular": {
          "specularColorFactor": [
            1.0,
            1.0,
            1.0
          ],
          "specularFactor": 0.12038131925735392
        }
      },
      "name": "Metal",
      "pbrMetallicRoughness": {
        "baseColorFactor": [
          0.09001585088471749,
          0.06049651877578424,
          0.048984527760389834,
          1.0
        ],
        "metallicFactor": 0.7238117297119381,
        "roughnessFactor": 0.44076020041203934
      }
    }
  ],
  "meshes": [
    {
      "name": "Door_Frame_SA_Wallwhite_0",
      "primitives": [
        {
          "attributes": {
            "NORMAL": 1,
            "POSITION": 0,
            "TEXCOORD_0": 2
          },
          "indices": 3,
          "material": 0,
          "mode": 4
        }
      ]
    },
    {
      "name": "Door_SA_Wood_0",
      "primitives": [
        {
          "attributes": {
            "NORMAL": 5,
            "POSITION": 4,
            "TEXCOORD_0": 6
          },
          "indices": 7,
          "material": 1,
          "mode": 4
        }
      ]
    },
    {
      "name": "Door_SA_Metal_0",
      "primitives": [
        {
          "attributes": {
            "NORMAL": 9,
            "POSITION": 8,
            "TEXCOORD_0": 10
          },
          "indices": 11,
          "material": 2,
          "mode": 4
        }
      ]
    }
  ],
  "nodes": [
    {
      "children": [
        1
      ],
      "matrix": [
        1.0,
        0.0,
        0.0,
        0.0,
        0.0,
        2.220446049250313e-16,
        -1.0,
        0.0,
        0.0,
        1.0,
        2.220446049250313e-16,
        0.0,
        0.0,
        0.0,
        0.0,
        1.0
      ],
      "name": "Sketchfab_model"
    },
    {
      "children": [
        2
      ],
      "matrix": [
        0.009999999776482582,
        0.0,
        0.0,
        0.0,
        0.0,
        0.0,
        0.009999999776482582,
        0.0,
        0.0,
        -0.009999999776482582,
        0.0,
        0.0,
        0.0,
        0.0,
        0.0,
        1.0
      ],
      "name": "af5256e1a39b446c956e9c5a77615ebc.fbx"
    },
    {
      "children": [
        3,
        5
      ],
      "name": "RootNode"
    },
    {
      "children": [
        4
      ],
      "matrix": [
        7.549789959870878e-06,
        0.0,
        -99.9999999999997,
        0.0,
        -99.99999999999838,
        -1.6292067961387602e-05,
        -7.549789954319763e-06,
        0.0,
        -1.6292067972489832e-05,
        99.99999999999866,
        -1.2212453270876722e-12,
        0.0,
        0.0,
        0.0,
        0.0,
        1.0
      ],
      "name": "Door_Frame_SA"
    },
    {
      "mesh": 0,
      "name": "Door_Frame_SA_Wallwhite_0"
    },
    {
      "children": [
        6,
        7
      ],
      "matrix": [
        100.0,
        0.0,
        0.0,
        0.0,
        0.0,
        -2.8212996916465727e-05,
        -99.99999999999602,
        0.0,
        0.0,
        99.99999999999602,
        -2.8212996916465727e-05,
        0.0,
        0.0,
        0.0,
        0.0,
        1.0
      ],
      "name": "Door_SA"
    },
    {
      "mesh": 1,
      "name": "Door_SA_Wood_0"
    },
    {
      "mesh": 2,
      "name": "Door_SA_Metal_0"
    }
  ],
  "scene": 0,
  "scenes": [
    {
      "name": "Sketchfab_Scene",
      "nodes": [
        0
      ]
    }
  ]
}
