{
  "accessors": [
    {
      "bufferView": 2,
      "componentType": 5126,
      "count": 7634,
      "max": [
        2.994511127471924,
        1.6274123191833496,
        0.031327396631240845
      ],
      "min": [
        -0.4032101631164551,
        -0.7359156608581543,
        -4.077184200286865
      ],
      "type": "VEC3"
    },
    {
      "bufferView": 2,
      "byteOffset": 91608,
      "componentType": 5126,
      "count": 7634,
      "max": [
        1.0,
        1.0,
        1.0
      ],
      "min": [
        -1.0,
        -1.0,
        -1.0
      ],
      "type": "VEC3"
    },
    {
      "bufferView": 1,
      "componentType": 5126,
      "count": 7634,
      "max": [
        1.036493182182312,
        0.9701454043388367
      ],
      "min": [
        -0.15541306138038635,
        0.0
      ],
      "type": "VEC2"
    },
    {
      "bufferView": 1,
      "byteOffset": 61072,
      "componentType": 5126,
      "count": 7634,
      "max": [
        1.036493182182312,
        0.9701454043388367
      ],
      "min": [
        -0.15541306138038635,
        0.0
      ],
      "type": "VEC2"
    },
    {
      "bufferView": 0,
      "componentType": 5125,
      "count": 11736,
      "type": "SCALAR"
    },
    {
      "bufferView": 2,
      "byteOffset": 183216,
      "componentType": 5126,
      "count": 240,
      "max": [
        3.017824172973633,
        1.6520122289657593,
        0.05695319175720215
      ],
      "min": [
        -0.43498897552490234,
        -0.268592894077301,
        -4.1166911125183105
      ],
      "type": "VEC3"
    },
    {
      "bufferView": 2,
      "byteOffset": 186096,
      "componentType": 5126,
      "count": 240,
      "max": [
        1.0,
        1.0,
        1.0
      ],
      "min": [
        -1.0,
        -1.0,
        -1.0
      ],
      "type": "VEC3"
    },
    {
      "bufferView": 1,
      "byteOffset": 122144,
      "componentType": 5126,
      "count": 240,
      "max": [
        2.47884202003479,
        0.9987940788269043
      ],
      "min": [
        -1.4346199035644531,
        0.604779839515686
      ],
      "type": "VEC2"
    },
    {
      "bufferView": 1,
      "byteOffset": 124064,
      "componentType": 5126,
      "count": 240,
      "max": [
        2.47884202003479,
        0.9987940788269043
      ],
      "min": [
        -1.4346199035644531,
        0.604779839515686
      ],
      "type": "VEC2"
    },
    {
      "bufferView": 0,
      "byteOffset": 46944,
      "componentType": 5125,
      "count": 384,
      "type": "SCALAR"
    },
    {
      "bufferView": 2,
      "byteOffset": 188976,
      "componentType": 5126,
      "count": 136,
      "max": [
        1.4325441122055054,
        -0.23750925064086914,
        -0.10869088768959045
      ],
      "min": [
        -0.629304826259613,
        -0.3554941415786743,
        -4.302894592285156
      ],
      "type": "VEC3"
    },
    {
      "bufferView": 2,
      "byteOffset": 190608,
      "componentType": 5126,
      "count": 136,
      "max": [
        1.0,
        1.0,
        1.0
      ],
      "min": [
        -1.0,
        -4.106857431906974e-07,
        -1.0
      ],
      "type": "VEC3"
    },
    {
      "bufferView": 1,
      "byteOffset": 125984,
      "componentType": 5126,
      "count": 136,
      "max": [
        0.5032098293304443,
        0.5347078442573547
      ],
      "min": [
        0.4085957407951355,
        0.4400937557220459
      ],
      "type": "VEC2"
    },
    {
      "bufferView": 1,
      "byteOffset": 127072,
      "componentType": 5126,
      "count": 136,
      "max": [
        0.5032098293304443,
        0.5347078442573547
      ],
      "min": [
        0.4085957407951355,
        0.4400937557220459
      ],
      "type": "VEC2"
    },
    {
      "bufferView": 0,
      "byteOffset": 48480,
      "componentType": 5125,
      "count": 312,
      "type": "SCALAR"
    }
  ],
  "asset": {
    "extras": {
      "author": "ModelMaker (https://sketchfab.com/mireubay1)",
      "license": "CC-BY-4.0 (http://creativecommons.org/licenses/by/4.0/)",
      "source": "https://sketchfab.com/3d-models/game-ready-building-5-73b1d5fc97ca46bab7f80b7c95001e79",
      "title": "Game ready building 5"
    },
    "generator": "Sketchfab-14.84.0",
    "version": "2.0"
  },
  "bufferViews": [
    {
      "buffer": 0,
      "byteLength": 49728,
      "name": "floatBufferViews",
      "target": 34963
    },
    {
      "buffer": 0,
      "byteLength": 128160,
      "byteOffset": 49728,
      "byteStride": 8,
      "name": "floatBufferViews",
      "target": 34962
    },
    {
      "buffer": 0,
      "byteLength": 192240,
      "byteOffset": 177888,
      "byteStride": 12,
      "name": "floatBufferViews",
      "target": 34962
    }
  ],
  "buffers": [
    {
      "byteLength": 370128,
      "uri": "scene.bin"
    }
  ],
  "images": [
    {
      "uri": "textures/atlas.004_baseColor.png"
    },
    {
      "uri": "textures/atlas.004_metallicRoughness.png"
    }
  ],
  "materials": [
    {
      "doubleSided": true,
      "name": "atlas.004",
      "pbrMetallicRoughness": {
        "baseColorTexture": {
          "index": 0
        },
        "metallicRoughnessTexture": {
          "index": 1
        }
      }
    },
    {
      "doubleSided": true,
      "name": "atlas.005",
      "pbrMetallicRoughness": {
        "baseColorTexture": {
          "index": 0
        },
        "metallicRoughnessTexture": {
          "index": 1
        }
      }
    },
    {
      "doubleSided": true,
      "name": "atlas",
      "pbrMetallicRoughness": {
        "baseColorTexture": {
          "index": 0
        },
        "metallicRoughnessTexture": {
          "index": 1
        }
      }
    }
  ],
  "meshes": [
    {
      "name": "Plane.065_atlas.004_0",
      "primitives": [
        {
          "attributes": {
            "NORMAL": 1,
            "POSITION": 0,
            "TEXCOORD_0": 2,
            "TEXCOORD_1": 3
          },
          "indices": 4,
          "material": 0,
          "mode": 4
        }
      ]
    },
    {
      "name": "Plane.065_atlas.005_0",
      "primitives": [
        {
          "attributes": {
            "NORMAL": 6,
            "POSITION": 5,
            "TEXCOORD_0": 7,
            "TEXCOORD_1": 8
          },
          "indices": 9,
          "material": 1,
          "mode": 4
        }
      ]
    },
    {
      "name": "Plane.065_atlas_0",
      "primitives": [
        {
          "attributes": {
            "NORMAL": 11,
            "POSITION": 10,
            "TEXCOORD_0": 12,
            "TEXCOORD_1": 13
          },
          "indices": 14,
          "material": 2,
          "mode": 4
        }
      ]
    }
  ],
  "nodes": [
    {
      "children": [
        1
      ],
      "matrix": [
        1.0,
        0.0,
        0.0,
        0.0,
        0.0,
        2.220446049250313e-16,
        -1.0,
        0.0,
        0.0,
        1.0,
        2.220446049250313e-16,
        0.0,
        0.0,
        0.0,
        0.0,
        1.0
      ],
      "name": "Sketchfab_model"
    },
    {
      "children": [
        2
      ],
      "matrix": [
        0.009999999776482582,
        0.0,
        0.0,
        0.0,
        0.0,
        0.0,
        0.009999999776482582,
        0.0,
        0.0,
        -0.009999999776482582,
        0.0,
        0.0,
        0.0,
        0.0,
        0.0,
        1.0
      ],
      "name": "c6197118d70d48c6b0539dbed67122f8.fbx"
    },
    {
      "children": [
        3
      ],
      "name": "RootNode"
    },
    {
      "children": [
        4,
        5,
        6
      ],
      "matrix": [
        5.253058304108864e-07,
        2.3021715916630156e-23,
        -6.957886695861796,
        0.0,
        3.0413893645670145e-07,
        6.957886695861809,
        2.296185086814688e-14,
        0.0,
        6.95788669586179,
        -3.0413893645670225e-07,
        5.253058304108864e-07,
        0.0,
        143.94485473632813,
        1.2364568710327148,
        64.34814453125,
        1.0
      ],
      "name": "Plane.065"
    },
    {
      "mesh": 0,
      "name": "Plane.065_atlas.004_0"
    },
    {
      "mesh": 1,
      "name": "Plane.065_atlas.005_0"
    },
    {
      "mesh": 2,
      "name": "Plane.065_atlas_0"
    }
  ],
  "samplers": [
    {
      "magFilter": 9729,
      "minFilter": 9987,
      "wrapS": 10497,
      "wrapT": 10497
    }
  ],
  "scene": 0,
  "scenes": [
    {
      "name": "Sketchfab_Scene",
      "nodes": [
        0
      ]
    }
  ],
  "textures": [
    {
      "sampler": 0,
      "source": 0
    },
    {
      "sampler": 0,
      "source": 1
    }
  ]
}
