{
  "asset": {
    "generator": "Khronos glTF Blender I/O v3.5.30",
    "version": "2.0"
  },
  "scene": 0,
  "scenes": [
    {
      "name": "Scene",
      "nodes": [
        0
      ]
    }
  ],
  "nodes": [
    {
      "mesh": 0,
      "name": "sphere_gltf"
    }
  ],
  "materials": [
    {
      "doubleSided": true,
      "name": "patio_tiles",
      "normalTexture": {
        "index": 0
      },
      "pbrMetallicRoughness": {
        "baseColorTexture": {
          "index": 1
        },
        "metallicFactor": 0,
        "metallicRoughnessTexture": {
          "index": 2
        }
      }
    }
  ],
  "meshes": [
    {
      "name": "Sphere.001",
      "primitives": [
        {
          "attributes": {
            "POSITION": 0,
            "TEXCOORD_0": 1,
            "NORMAL": 2
          },
          "indices": 3,
          "material": 0
        }
      ]
    }
  ],
  "textures": [
    {
      "sampler": 0,
      "source": 0
    },
    {
      "sampler": 0,
      "source": 1
    },
    {
      "sampler": 0,
      "source": 2
    }
  ],
  "images": [
    {
      "mimeType": "image/jpeg",
      "name": "patio_tiles_nor_gl",
      "uri": "textures/patio_tiles_nor_gl_2k.jpg"
    },
    {
      "mimeType": "image/jpeg",
      "name": "patio_tiles_diff",
      "uri": "textures/patio_tiles_diff_2k.jpg"
    },
    {
      "mimeType": "image/jpeg",
      "name": "patio_tiles_rough",
      "uri": "textures/patio_tiles_arm_2k.jpg"
    }
  ],
  "accessors": [
    {
      "bufferView": 0,
      "componentType": 5126,
      "count": 53935,
      "max": [
        1.077536940574646,
        1.077536940574646,
        1.077472448348999
      ],
      "min": [
        -1.0775405168533325,
        -1.077505111694336,
        -1.0774717330932617
      ],
      "type": "VEC3"
    },
    {
      "bufferView": 1,
      "componentType": 5126,
      "count": 53935,
      "type": "VEC2"
    },
    {
      "bufferView": 2,
      "componentType": 5126,
      "count": 53935,
      "type": "VEC3"
    },
    {
      "bufferView": 3,
      "componentType": 5123,
      "count": 322170,
      "type": "SCALAR"
    }
  ],
  "bufferViews": [
    {
      "buffer": 0,
      "byteLength": 647220,
      "byteOffset": 0,
      "target": 34962
    },
    {
      "buffer": 0,
      "byteLength": 431480,
      "byteOffset": 647220,
      "target": 34962
    },
    {
      "buffer": 0,
      "byteLength": 647220,
      "byteOffset": 1078700,
      "target": 34962
    },
    {
      "buffer": 0,
      "byteLength": 644340,
      "byteOffset": 1725920,
      "target": 34963
    }
  ],
  "samplers": [
    {
      "magFilter": 9729,
      "minFilter": 9987
    }
  ],
  "buffers": [
    {
      "byteLength": 2370260,
      "uri": "patio_tiles.bin"
    }
  ]
}