{
  "accessors": [
    {
      "bufferView": 2,
      "componentType": 5126,
      "count": 13693,
      "max": [
        0.9140036702156067,
        0.6372993588447571,
        2.239739418029785
      ],
      "min": [
        -0.9571255445480347,
        -0.8567991852760315,
        -1.9946684837341309
      ],
      "type": "VEC3"
    },
    {
      "bufferView": 2,
      "byteOffset": 164316,
      "componentType": 5126,
      "count": 13693,
      "max": [
        0.9999973773956299,
        0.9999921321868896,
        0.9997507333755493
      ],
      "min": [
        -0.9999964833259583,
        -0.9999326467514038,
        -0.9998287558555603
      ],
      "type": "VEC3"
    },
    {
      "bufferView": 1,
      "componentType": 5126,
      "count": 13693,
      "max": [
        0.9983026385307312,
        1.0
      ],
      "min": [
        0.0,
        0.055374860763549805
      ],
      "type": "VEC2"
    },
    {
      "bufferView": 0,
      "componentType": 5125,
      "count": 58149,
      "type": "SCALAR"
    }
  ],
  "asset": {
    "extras": {
      "author": "Alben Tan (https://sketchfab.com/albentan2012)",
      "license": "CC-BY-4.0 (http://creativecommons.org/licenses/by/4.0/)",
      "source": "https://sketchfab.com/3d-models/car-covered-with-gray-cloth-2-a6663b2e7d264f6898738706901914cc",
      "title": "Car Covered With Gray Cloth 2"
    },
    "generator": "Sketchfab-13.74.0",
    "version": "2.0"
  },
  "bufferViews": [
    {
      "buffer": 0,
      "byteLength": 232596,
      "name": "floatBufferViews",
      "target": 34963
    },
    {
      "buffer": 0,
      "byteLength": 109544,
      "byteOffset": 232596,
      "byteStride": 8,
      "name": "floatBufferViews",
      "target": 34962
    },
    {
      "buffer": 0,
      "byteLength": 328632,
      "byteOffset": 342140,
      "byteStride": 12,
      "name": "floatBufferViews",
      "target": 34962
    }
  ],
  "buffers": [
    {
      "byteLength": 670772,
      "uri": "scene.bin"
    }
  ],
  "images": [
    {
      "uri": "textures/Car_with_gray_cloth_2_baseColor.jpeg"
    }
  ],
  "materials": [
    {
      "name": "Car_with_gray_cloth_2",
      "pbrMetallicRoughness": {
        "baseColorTexture": {
          "index": 0
        },
        "metallicFactor": 0.0
      }
    }
  ],
  "meshes": [
    {
      "name": "Object_0",
      "primitives": [
        {
          "attributes": {
            "NORMAL": 1,
            "POSITION": 0,
            "TEXCOORD_0": 2
          },
          "indices": 3,
          "material": 0,
          "mode": 4
        }
      ]
    }
  ],
  "nodes": [
    {
      "children": [
        1
      ],
      "matrix": [
        1.0,
        0.0,
        0.0,
        0.0,
        0.0,
        2.220446049250313e-16,
        -1.0,
        0.0,
        0.0,
        1.0,
        2.220446049250313e-16,
        0.0,
        0.0,
        0.0,
        0.0,
        1.0
      ],
      "name": "Sketchfab_model"
    },
    {
      "children": [
        2
      ],
      "name": "root"
    },
    {
      "children": [
        3
      ],
      "matrix": [
        1.0,
        0.0,
        0.0,
        0.0,
        0.0,
        2.220446049250313e-16,
        1.0,
        0.0,
        0.0,
        -1.0,
        2.220446049250313e-16,
        0.0,
        0.0,
        0.0,
        0.0,
        1.0
      ],
      "name": "GLTF_SceneRootNode"
    },
    {
      "children": [
        4
      ],
      "matrix": [
        -0.3943364196330674,
        0.0,
        0.9189661517982985,
        0.0,
        -0.0,
        1.0,
        0.0,
        0.0,
        -0.9189661517982985,
        0.0,
        -0.3943364196330674,
        0.0,
        -9.37206745147705,
        0.2539016902446747,
        -5.951334476470947,
        1.0
      ],
      "name": "Car with gray cloth 2 by Alben Tan_0"
    },
    {
      "mesh": 0,
      "name": "Object_4"
    }
  ],
  "samplers": [
    {
      "magFilter": 9729,
      "minFilter": 9987,
      "wrapS": 10497,
      "wrapT": 10497
    }
  ],
  "scene": 0,
  "scenes": [
    {
      "name": "Sketchfab_Scene",
      "nodes": [
        0
      ]
    }
  ],
  "textures": [
    {
      "sampler": 0,
      "source": 0
    }
  ]
}
