{
  "asset": {
    "generator": "Khronos glTF Blender I/O v4.5.48",
    "version": "2.0"
  },
  "scene": 0,
  "scenes": [
    {
      "name": "Scene",
      "nodes": [
        0
      ]
    }
  ],
  "nodes": [
    {
      "mesh": 0,
      "name": "sphere_gltf"
    }
  ],
  "materials": [
    {
      "doubleSided": true,
      "name": "clean_asphalt",
      "normalTexture": {
        "index": 0
      },
      "pbrMetallicRoughness": {
        "baseColorTexture": {
          "index": 1
        },
        "metallicFactor": 0,
        "metallicRoughnessTexture": {
          "index": 2
        }
      }
    }
  ],
  "meshes": [
    {
      "name": "Sphere.001",
      "primitives": [
        {
          "attributes": {
            "POSITION": 0,
            "NORMAL": 1,
            "TEXCOORD_0": 2
          },
          "indices": 3,
          "material": 0
        }
      ]
    }
  ],
  "textures": [
    {
      "sampler": 0,
      "source": 0
    },
    {
      "sampler": 0,
      "source": 1
    },
    {
      "sampler": 0,
      "source": 2
    }
  ],
  "images": [
    {
      "mimeType": "image/jpeg",
      "name": "clean_asphalt_nor_gl",
      "uri": "textures/clean_asphalt_nor_gl_2k.jpg"
    },
    {
      "mimeType": "image/jpeg",
      "name": "clean_asphalt_diff",
      "uri": "textures/clean_asphalt_diff_2k.jpg"
    },
    {
      "mimeType": "image/jpeg",
      "name": "clean_asphalt_rough",
      "uri": "textures/clean_asphalt_arm_2k.jpg"
    }
  ],
  "accessors": [
    {
      "bufferView": 0,
      "componentType": 5126,
      "count": 53941,
      "max": [
        1.0481131076812744,
        1.0487364530563354,
        1.0477583408355713
      ],
      "min": [
        -1.0481218099594116,
        -1.0482416152954102,
        -1.0477657318115234
      ],
      "type": "VEC3"
    },
    {
      "bufferView": 1,
      "componentType": 5126,
      "count": 53941,
      "type": "VEC3"
    },
    {
      "bufferView": 2,
      "componentType": 5126,
      "count": 53941,
      "type": "VEC2"
    },
    {
      "bufferView": 3,
      "componentType": 5123,
      "count": 322170,
      "type": "SCALAR"
    }
  ],
  "bufferViews": [
    {
      "buffer": 0,
      "byteLength": 647292,
      "byteOffset": 0,
      "target": 34962
    },
    {
      "buffer": 0,
      "byteLength": 647292,
      "byteOffset": 647292,
      "target": 34962
    },
    {
      "buffer": 0,
      "byteLength": 431528,
      "byteOffset": 1294584,
      "target": 34962
    },
    {
      "buffer": 0,
      "byteLength": 644340,
      "byteOffset": 1726112,
      "target": 34963
    }
  ],
  "samplers": [
    {
      "magFilter": 9729,
      "minFilter": 9987
    }
  ],
  "buffers": [
    {
      "byteLength": 2370452,
      "uri": "clean_asphalt.bin"
    }
  ]
}