{
  "accessors": [
    {
      "bufferView": 2,
      "componentType": 5126,
      "count": 1720,
      "max": [
        0.6316046118736267,
        0.2882995009422302,
        0.9520315527915955
      ],
      "min": [
        -0.6316046118736267,
        -0.22315490245819092,
        0.021267950534820557
      ],
      "type": "VEC3"
    },
    {
      "bufferView": 2,
      "byteOffset": 20640,
      "componentType": 5126,
      "count": 1720,
      "max": [
        1.0,
        1.0,
        1.0
      ],
      "min": [
        -1.0,
        -1.0,
        -1.0
      ],
      "type": "VEC3"
    },
    {
      "bufferView": 1,
      "componentType": 5126,
      "count": 1720,
      "max": [
        0.8798171877861023,
        0.7746907472610474
      ],
      "min": [
        0.11855998635292053,
        0.18333518505096436
      ],
      "type": "VEC2"
    },
    {
      "bufferView": 0,
      "componentType": 5125,
      "count": 7548,
      "type": "SCALAR"
    },
    {
      "bufferView": 2,
      "byteOffset": 41280,
      "componentType": 5126,
      "count": 544,
      "max": [
        0.5881773233413696,
        -0.17631177604198456,
        0.7671098709106445
      ],
      "min": [
        -0.5881773233413696,
        -0.20095813274383545,
        0.29038506746292114
      ],
      "type": "VEC3"
    },
    {
      "bufferView": 2,
      "byteOffset": 47808,
      "componentType": 5126,
      "count": 544,
      "max": [
        1.0,
        1.0,
        1.0
      ],
      "min": [
        -1.0,
        -1.0,
        -1.0
      ],
      "type": "VEC3"
    },
    {
      "bufferView": 1,
      "byteOffset": 13760,
      "componentType": 5126,
      "count": 544,
      "max": [
        0.8546842932701111,
        0.6341237425804138
      ],
      "min": [
        0.14369288086891174,
        0.3459901809692383
      ],
      "type": "VEC2"
    },
    {
      "bufferView": 0,
      "byteOffset": 30192,
      "componentType": 5125,
      "count": 1488,
      "type": "SCALAR"
    }
  ],
  "asset": {
    "extras": {
      "author": "GameDevMoot (https://sketchfab.com/GameDevMoot)",
      "license": "CC-BY-4.0 (http://creativecommons.org/licenses/by/4.0/)",
      "source": "https://sketchfab.com/3d-models/small-wooden-cabinet-low-poly-bf4e6be63a4647d6a4b7b1158092dcde",
      "title": "Small Wooden Cabinet Low Poly"
    },
    "generator": "Sketchfab-16.7.0",
    "version": "2.0"
  },
  "bufferViews": [
    {
      "buffer": 0,
      "byteLength": 36144,
      "name": "floatBufferViews",
      "target": 34963
    },
    {
      "buffer": 0,
      "byteLength": 18112,
      "byteOffset": 36144,
      "byteStride": 8,
      "name": "floatBufferViews",
      "target": 34962
    },
    {
      "buffer": 0,
      "byteLength": 54336,
      "byteOffset": 54256,
      "byteStride": 12,
      "name": "floatBufferViews",
      "target": 34962
    }
  ],
  "buffers": [
    {
      "byteLength": 108592,
      "uri": "scene.bin"
    }
  ],
  "extensionsUsed": [
    "KHR_materials_specular"
  ],
  "materials": [
    {
      "doubleSided": true,
      "extensions": {
        "KHR_materials_specular": {
          "specularColorFactor": [
            1.0,
            1.0,
            1.0
          ],
          "specularFactor": 0.11428606258609549
        }
      },
      "name": "Wood",
      "pbrMetallicRoughness": {
        "baseColorFactor": [
          0.0925066476767465,
          0.02630747959119005,
          0.013235540158494898,
          1.0
        ],
        "metallicFactor": 0.0,
        "roughnessFactor": 0.6906657239336349
      }
    },
    {
      "doubleSided": true,
      "extensions": {
        "KHR_materials_specular": {
          "specularColorFactor": [
            1.0,
            1.0,
            1.0
          ],
          "specularFactor": 0.1569528592849045
        }
      },
      "name": "Metal",
      "pbrMetallicRoughness": {
        "baseColorFactor": [
          0.0736778947237429,
          0.053115988794926114,
          0.044822217770301855,
          1.0
        ],
        "metallicFactor": 0.7664785264107471,
        "roughnessFactor": 0.40418866038448886
      }
    }
  ],
  "meshes": [
    {
      "name": "Cabinet_Wood_Wood_0",
      "primitives": [
        {
          "attributes": {
            "NORMAL": 1,
            "POSITION": 0,
            "TEXCOORD_0": 2
          },
          "indices": 3,
          "material": 0,
          "mode": 4
        }
      ]
    },
    {
      "name": "Cabinet_Wood_Metal_0",
      "primitives": [
        {
          "attributes": {
            "NORMAL": 5,
            "POSITION": 4,
            "TEXCOORD_0": 6
          },
          "indices": 7,
          "material": 1,
          "mode": 4
        }
      ]
    }
  ],
  "nodes": [
    {
      "children": [
        1
      ],
      "matrix": [
        1.0,
        0.0,
        0.0,
        0.0,
        0.0,
        2.220446049250313e-16,
        -1.0,
        0.0,
        0.0,
        1.0,
        2.220446049250313e-16,
        0.0,
        0.0,
        0.0,
        0.0,
        1.0
      ],
      "name": "Sketchfab_model"
    },
    {
      "children": [
        2
      ],
      "matrix": [
        0.009999999776482582,
        0.0,
        0.0,
        0.0,
        0.0,
        0.0,
        0.009999999776482582,
        0.0,
        0.0,
        -0.009999999776482582,
        0.0,
        0.0,
        0.0,
        0.0,
        0.0,
        1.0
      ],
      "name": "6caa781b244b4c108ee696406ff42bb3.fbx"
    },
    {
      "children": [
        3
      ],
      "name": "RootNode"
    },
    {
      "children": [
        4,
        5
      ],
      "matrix": [
        100.0,
        0.0,
        0.0,
        0.0,
        0.0,
        -2.8212996916465727e-05,
        -99.99999999999602,
        0.0,
        0.0,
        99.99999999999602,
        -2.8212996916465727e-05,
        0.0,
        0.0,
        0.0,
        0.0,
        1.0
      ],
      "name": "Cabinet_Wood"
    },
    {
      "mesh": 0,
      "name": "Cabinet_Wood_Wood_0"
    },
    {
      "mesh": 1,
      "name": "Cabinet_Wood_Metal_0"
    }
  ],
  "scene": 0,
  "scenes": [
    {
      "name": "Sketchfab_Scene",
      "nodes": [
        0
      ]
    }
  ]
}
