{
  "asset": {
    "generator": "Khronos glTF Blender I/O v5.1.20",
    "version": "2.0"
  },
  "scene": 0,
  "scenes": [
    {
      "name": "Scene",
      "nodes": [
        0
      ]
    }
  ],
  "nodes": [
    {
      "mesh": 0,
      "name": "plastic_container"
    }
  ],
  "materials": [
    {
      "doubleSided": true,
      "name": "plastic_container",
      "normalTexture": {
        "index": 0
      },
      "pbrMetallicRoughness": {
        "baseColorTexture": {
          "index": 1
        },
        "metallicFactor": 0,
        "metallicRoughnessTexture": {
          "index": 2
        }
      }
    }
  ],
  "meshes": [
    {
      "name": "plastic_box",
      "primitives": [
        {
          "attributes": {
            "POSITION": 0,
            "NORMAL": 1,
            "TEXCOORD_0": 2
          },
          "indices": 3,
          "material": 0
        }
      ]
    }
  ],
  "textures": [
    {
      "sampler": 0,
      "source": 0
    },
    {
      "sampler": 0,
      "source": 1
    },
    {
      "sampler": 0,
      "source": 2
    }
  ],
  "images": [
    {
      "mimeType": "image/jpeg",
      "name": "plastic_container_nor_gl",
      "uri": "textures/plastic_container_nor_gl_4k.jpg"
    },
    {
      "mimeType": "image/jpeg",
      "name": "plastic_container_diff",
      "uri": "textures/plastic_container_diff_4k.jpg"
    },
    {
      "mimeType": "image/jpeg",
      "name": "plastic_container_rough",
      "uri": "textures/plastic_container_arm_4k.jpg"
    }
  ],
  "accessors": [
    {
      "bufferView": 0,
      "componentType": 5126,
      "count": 3747,
      "max": [
        0.4475393295288086,
        0.4296899735927582,
        0.31318172812461853
      ],
      "min": [
        -0.447539359331131,
        -8.110195848232138e-10,
        -0.31318166851997375
      ],
      "type": "VEC3"
    },
    {
      "bufferView": 1,
      "componentType": 5126,
      "count": 3747,
      "type": "VEC3"
    },
    {
      "bufferView": 2,
      "componentType": 5126,
      "count": 3747,
      "type": "VEC2"
    },
    {
      "bufferView": 3,
      "componentType": 5123,
      "count": 12210,
      "type": "SCALAR"
    }
  ],
  "bufferViews": [
    {
      "buffer": 0,
      "byteLength": 44964,
      "byteOffset": 0,
      "target": 34962
    },
    {
      "buffer": 0,
      "byteLength": 44964,
      "byteOffset": 44964,
      "target": 34962
    },
    {
      "buffer": 0,
      "byteLength": 29976,
      "byteOffset": 89928,
      "target": 34962
    },
    {
      "buffer": 0,
      "byteLength": 24420,
      "byteOffset": 119904,
      "target": 34963
    }
  ],
  "samplers": [
    {
      "magFilter": 9729,
      "minFilter": 9987
    }
  ],
  "buffers": [
    {
      "byteLength": 144324,
      "uri": "plastic_container.bin"
    }
  ]
}