{
  "accessors": [
    {
      "bufferView": 2,
      "componentType": 5126,
      "count": 11537,
      "max": [
        0.7068974375724792,
        0.35384345054626465,
        0.8842520713806152
      ],
      "min": [
        -0.7068974375724792,
        -0.3532114624977112,
        -0.054599661380052567
      ],
      "type": "VEC3"
    },
    {
      "bufferView": 2,
      "byteOffset": 138444,
      "componentType": 5126,
      "count": 11537,
      "max": [
        1.0,
        1.0,
        1.0
      ],
      "min": [
        -1.0,
        -1.0,
        -1.0
      ],
      "type": "VEC3"
    },
    {
      "bufferView": 1,
      "componentType": 5126,
      "count": 11537,
      "max": [
        1.4938737154006958,
        1.2916314601898193
      ],
      "min": [
        -1.0423659086227417,
        -0.4787410497665405
      ],
      "type": "VEC2"
    },
    {
      "bufferView": 0,
      "componentType": 5125,
      "count": 41274,
      "type": "SCALAR"
    },
    {
      "bufferView": 2,
      "byteOffset": 276888,
      "componentType": 5126,
      "count": 288,
      "max": [
        45.52277755737305,
        14.072214126586914,
        5.782557010650635
      ],
      "min": [
        -27.762189865112305,
        -15.651304244995117,
        -118.5907974243164
      ],
      "type": "VEC3"
    },
    {
      "bufferView": 2,
      "byteOffset": 280344,
      "componentType": 5126,
      "count": 288,
      "max": [
        1.0,
        1.0,
        1.0
      ],
      "min": [
        -1.0,
        -1.0,
        -1.0
      ],
      "type": "VEC3"
    },
    {
      "bufferView": 1,
      "byteOffset": 92296,
      "componentType": 5126,
      "count": 288,
      "max": [
        0.875,
        1.0
      ],
      "min": [
        0.125,
        0.0
      ],
      "type": "VEC2"
    },
    {
      "bufferView": 0,
      "byteOffset": 165096,
      "componentType": 5125,
      "count": 432,
      "type": "SCALAR"
    }
  ],
  "asset": {
    "extras": {
      "author": "GameDevMoot (https://sketchfab.com/GameDevMoot)",
      "license": "CC-BY-4.0 (http://creativecommons.org/licenses/by/4.0/)",
      "source": "https://sketchfab.com/3d-models/table-fancy-1-142bc494bbea40ef8e2d3894c0a96431",
      "title": "Table Fancy 1"
    },
    "generator": "Sketchfab-15.53.0",
    "version": "2.0"
  },
  "bufferViews": [
    {
      "buffer": 0,
      "byteLength": 166824,
      "name": "floatBufferViews",
      "target": 34963
    },
    {
      "buffer": 0,
      "byteLength": 94600,
      "byteOffset": 166824,
      "byteStride": 8,
      "name": "floatBufferViews",
      "target": 34962
    },
    {
      "buffer": 0,
      "byteLength": 283800,
      "byteOffset": 261424,
      "byteStride": 12,
      "name": "floatBufferViews",
      "target": 34962
    }
  ],
  "buffers": [
    {
      "byteLength": 545224,
      "uri": "scene.bin"
    }
  ],
  "extensionsUsed": [
    "KHR_materials_specular"
  ],
  "materials": [
    {
      "alphaMode": "BLEND",
      "doubleSided": true,
      "name": "UCX_Table_Fancy_01__0",
      "pbrMetallicRoughness": {
        "baseColorFactor": [
          1.0,
          1.0,
          1.0,
          0.0
        ],
        "metallicFactor": 0.0,
        "roughnessFactor": 0.6
      }
    },
    {
      "doubleSided": true,
      "extensions": {
        "KHR_materials_specular": {
          "specularColorFactor": [
            1.0,
            1.0,
            1.0
          ],
          "specularFactor": 0.07771452255854494
        }
      },
      "name": "Wood",
      "pbrMetallicRoughness": {
        "baseColorFactor": [
          0.03433980680868217,
          0.012983032342173007,
          0.005605391624202719,
          1.0
        ],
        "metallicFactor": 0.0,
        "roughnessFactor": 0.5443795638234326
      }
    }
  ],
  "meshes": [
    {
      "name": "Table_Fancy_01_Wood_0",
      "primitives": [
        {
          "attributes": {
            "NORMAL": 1,
            "POSITION": 0,
            "TEXCOORD_0": 2
          },
          "indices": 3,
          "material": 1,
          "mode": 4
        }
      ]
    },
    {
      "name": "UCX_Table_Fancy_01__0",
      "primitives": [
        {
          "attributes": {
            "NORMAL": 5,
            "POSITION": 4,
            "TEXCOORD_0": 6
          },
          "indices": 7,
          "material": 0,
          "mode": 4
        }
      ]
    }
  ],
  "nodes": [
    {
      "children": [
        1
      ],
      "matrix": [
        1.0,
        0.0,
        0.0,
        0.0,
        0.0,
        2.220446049250313e-16,
        -1.0,
        0.0,
        0.0,
        1.0,
        2.220446049250313e-16,
        0.0,
        0.0,
        0.0,
        0.0,
        1.0
      ],
      "name": "Sketchfab_model"
    },
    {
      "children": [
        2
      ],
      "matrix": [
        0.009999999776482582,
        0.0,
        0.0,
        0.0,
        0.0,
        0.0,
        0.009999999776482582,
        0.0,
        0.0,
        -0.009999999776482582,
        0.0,
        0.0,
        0.0,
        0.0,
        0.0,
        1.0
      ],
      "name": "c60b39ff3ab449adb59b67017f3a7121.fbx"
    },
    {
      "children": [
        3,
        5
      ],
      "name": "RootNode"
    },
    {
      "children": [
        4
      ],
      "matrix": [
        100.0,
        0.0,
        0.0,
        0.0,
        0.0,
        -1.629206793918314e-05,
        -99.99999999999868,
        0.0,
        0.0,
        99.99999999999868,
        -1.629206793918314e-05,
        0.0,
        0.0,
        0.0,
        0.0,
        1.0
      ],
      "name": "Table_Fancy_01"
    },
    {
      "mesh": 0,
      "name": "Table_Fancy_01_Wood_0"
    },
    {
      "children": [
        6
      ],
      "matrix": [
        -1.934916377067419,
        1.9141019595512515e-14,
        7.534842569843076e-07,
        0.0,
        9.296621334545344e-07,
        1.8023869335097483e-07,
        2.387333869933894,
        0.0,
        -1.467354870780072e-14,
        0.7521988153457619,
        -5.6789430722753035e-08,
        0.0,
        17.20556640625,
        84.1532974243164,
        1.9757447242736816,
        1.0
      ],
      "name": "UCX_Table_Fancy_01"
    },
    {
      "mesh": 1,
      "name": "UCX_Table_Fancy_01__0"
    }
  ],
  "scene": 0,
  "scenes": [
    {
      "name": "Sketchfab_Scene",
      "nodes": [
        0
      ]
    }
  ]
}
