{
  "accessors": [
    {
      "bufferView": 2,
      "componentType": 5126,
      "count": 6763,
      "max": [
        1.8868848085403442,
        1.004655361175537,
        2.1786510944366455
      ],
      "min": [
        0.11511765420436859,
        -0.946652352809906,
        -2.0580804347991943
      ],
      "type": "VEC3"
    },
    {
      "bufferView": 2,
      "byteOffset": 81156,
      "componentType": 5126,
      "count": 6763,
      "max": [
        0.9999954104423523,
        0.999995768070221,
        0.9999991059303284
      ],
      "min": [
        -0.9999969005584717,
        -0.9999993443489075,
        -0.9999926686286926
      ],
      "type": "VEC3"
    },
    {
      "bufferView": 1,
      "componentType": 5126,
      "count": 6763,
      "max": [
        0.9983932971954346,
        1.0
      ],
      "min": [
        0.0,
        0.0017300844192504883
      ],
      "type": "VEC2"
    },
    {
      "bufferView": 1,
      "byteOffset": 54104,
      "componentType": 5126,
      "count": 6763,
      "max": [
        0.9983932971954346,
        1.0
      ],
      "min": [
        0.0,
        0.0017300844192504883
      ],
      "type": "VEC2"
    },
    {
      "bufferView": 1,
      "byteOffset": 108208,
      "componentType": 5126,
      "count": 6763,
      "max": [
        0.9983932971954346,
        1.0
      ],
      "min": [
        0.0,
        0.0017300844192504883
      ],
      "type": "VEC2"
    },
    {
      "bufferView": 0,
      "componentType": 5125,
      "count": 30291,
      "type": "SCALAR"
    }
  ],
  "asset": {
    "extras": {
      "author": "Alben Tan (https://sketchfab.com/albentan2012)",
      "license": "CC-BY-4.0 (http://creativecommons.org/licenses/by/4.0/)",
      "source": "https://sketchfab.com/3d-models/abandoned-car-vehicle-multicab-3d-scan-5ed2b4a8b5564c6d98efa76ce62df505",
      "title": "Abandoned car / vehicle (Multicab) 3D Scan"
    },
    "generator": "Sketchfab-13.68.0",
    "version": "2.0"
  },
  "bufferViews": [
    {
      "buffer": 0,
      "byteLength": 121164,
      "name": "floatBufferViews",
      "target": 34963
    },
    {
      "buffer": 0,
      "byteLength": 162312,
      "byteOffset": 121164,
      "byteStride": 8,
      "name": "floatBufferViews",
      "target": 34962
    },
    {
      "buffer": 0,
      "byteLength": 162312,
      "byteOffset": 283476,
      "byteStride": 12,
      "name": "floatBufferViews",
      "target": 34962
    }
  ],
  "buffers": [
    {
      "byteLength": 445788,
      "uri": "scene.bin"
    }
  ],
  "images": [
    {
      "uri": "textures/Material_0.040_baseColor.jpeg"
    },
    {
      "uri": "textures/Material_0.040_metallicRoughness.png"
    }
  ],
  "materials": [
    {
      "name": "Material_0.040",
      "pbrMetallicRoughness": {
        "baseColorTexture": {
          "index": 0
        },
        "metallicFactor": 0.127273,
        "metallicRoughnessTexture": {
          "index": 1
        }
      }
    }
  ],
  "meshes": [
    {
      "name": "Object_0",
      "primitives": [
        {
          "attributes": {
            "NORMAL": 1,
            "POSITION": 0,
            "TEXCOORD_0": 2,
            "TEXCOORD_1": 3,
            "TEXCOORD_2": 4
          },
          "indices": 5,
          "material": 0,
          "mode": 4
        }
      ]
    }
  ],
  "nodes": [
    {
      "children": [
        1
      ],
      "matrix": [
        1.0,
        0.0,
        0.0,
        0.0,
        0.0,
        2.220446049250313e-16,
        -1.0,
        0.0,
        0.0,
        1.0,
        2.220446049250313e-16,
        0.0,
        0.0,
        0.0,
        0.0,
        1.0
      ],
      "name": "Sketchfab_model"
    },
    {
      "children": [
        2
      ],
      "name": "root"
    },
    {
      "children": [
        3
      ],
      "matrix": [
        1.0,
        0.0,
        0.0,
        0.0,
        0.0,
        2.220446049250313e-16,
        1.0,
        0.0,
        0.0,
        -1.0,
        2.220446049250313e-16,
        0.0,
        0.0,
        0.0,
        0.0,
        1.0
      ],
      "name": "GLTF_SceneRootNode"
    },
    {
      "children": [
        4
      ],
      "matrix": [
        1.0,
        0.0,
        0.0,
        0.0,
        0.0,
        1.0,
        0.0,
        0.0,
        0.0,
        0.0,
        1.0,
        0.0,
        -7.115560531616211,
        0.0,
        8.147224426269531,
        1.0
      ],
      "name": "Multicab 1_0"
    },
    {
      "mesh": 0,
      "name": "Object_4"
    }
  ],
  "samplers": [
    {
      "magFilter": 9729,
      "minFilter": 9987,
      "wrapS": 10497,
      "wrapT": 10497
    }
  ],
  "scene": 0,
  "scenes": [
    {
      "name": "Sketchfab_Scene",
      "nodes": [
        0
      ]
    }
  ],
  "textures": [
    {
      "sampler": 0,
      "source": 0
    },
    {
      "sampler": 0,
      "source": 1
    }
  ]
}
