{
  "accessors": [
    {
      "bufferView": 2,
      "componentType": 5126,
      "count": 2557,
      "max": [
        0.45805594325065613,
        0.31282004714012146,
        0.1383219212293625
      ],
      "min": [
        -0.4428004026412964,
        -0.3318600356578827,
        -0.1267021894454956
      ],
      "type": "VEC3"
    },
    {
      "bufferView": 2,
      "byteOffset": 30684,
      "componentType": 5126,
      "count": 2557,
      "max": [
        0.9985604286193848,
        0.9999616146087646,
        0.9999819397926331
      ],
      "min": [
        -0.9977549910545349,
        -0.9998464584350586,
        -0.999984085559845
      ],
      "type": "VEC3"
    },
    {
      "bufferView": 1,
      "componentType": 5126,
      "count": 2557,
      "max": [
        0.8155713081359863,
        0.7094879746437073
      ],
      "min": [
        0.2014024555683136,
        0.27078384160995483
      ],
      "type": "VEC2"
    },
    {
      "bufferView": 0,
      "componentType": 5125,
      "count": 10866,
      "type": "SCALAR"
    }
  ],
  "asset": {
    "extras": {
      "author": "GameDevMoot (https://sketchfab.com/GameDevMoot)",
      "license": "CC-BY-4.0 (http://creativecommons.org/licenses/by/4.0/)",
      "source": "https://sketchfab.com/3d-models/single-sandbag-77186bbcebce4c4a833d6153217e48d2",
      "title": "Single Sandbag"
    },
    "generator": "Sketchfab-16.7.0",
    "version": "2.0"
  },
  "bufferViews": [
    {
      "buffer": 0,
      "byteLength": 43464,
      "name": "floatBufferViews",
      "target": 34963
    },
    {
      "buffer": 0,
      "byteLength": 20456,
      "byteOffset": 43464,
      "byteStride": 8,
      "name": "floatBufferViews",
      "target": 34962
    },
    {
      "buffer": 0,
      "byteLength": 61368,
      "byteOffset": 63920,
      "byteStride": 12,
      "name": "floatBufferViews",
      "target": 34962
    }
  ],
  "buffers": [
    {
      "byteLength": 125288,
      "uri": "scene.bin"
    }
  ],
  "extensionsUsed": [
    "KHR_materials_specular"
  ],
  "materials": [
    {
      "doubleSided": true,
      "extensions": {
        "KHR_materials_specular": {
          "specularColorFactor": [
            1.0,
            1.0,
            1.0
          ],
          "specularFactor": 0.11428606258609549
        }
      },
      "name": "SandbagMaterial",
      "pbrMetallicRoughness": {
        "baseColorFactor": [
          0.230076,
          0.144958,
          0.0693944,
          1.0
        ],
        "metallicFactor": 0.0
      }
    }
  ],
  "meshes": [
    {
      "name": "Sandbag_LQ_SandbagMaterial_0",
      "primitives": [
        {
          "attributes": {
            "NORMAL": 1,
            "POSITION": 0,
            "TEXCOORD_0": 2
          },
          "indices": 3,
          "material": 0,
          "mode": 4
        }
      ]
    }
  ],
  "nodes": [
    {
      "children": [
        1
      ],
      "matrix": [
        1.0,
        0.0,
        0.0,
        0.0,
        0.0,
        2.220446049250313e-16,
        -1.0,
        0.0,
        0.0,
        1.0,
        2.220446049250313e-16,
        0.0,
        0.0,
        0.0,
        0.0,
        1.0
      ],
      "name": "Sketchfab_model"
    },
    {
      "children": [
        2
      ],
      "matrix": [
        0.009999999776482582,
        0.0,
        0.0,
        0.0,
        0.0,
        0.0,
        0.009999999776482582,
        0.0,
        0.0,
        -0.009999999776482582,
        0.0,
        0.0,
        0.0,
        0.0,
        0.0,
        1.0
      ],
      "name": "97d60f420b434e8cbe2c14dc671b7a28.fbx"
    },
    {
      "children": [
        3
      ],
      "name": "RootNode"
    },
    {
      "children": [
        4
      ],
      "matrix": [
        100.0,
        0.0,
        0.0,
        0.0,
        0.0,
        -1.629206793918314e-05,
        -99.99999999999868,
        0.0,
        0.0,
        99.99999999999868,
        -1.629206793918314e-05,
        0.0,
        0.0,
        0.0,
        0.0,
        1.0
      ],
      "name": "Sandbag_LQ"
    },
    {
      "mesh": 0,
      "name": "Sandbag_LQ_SandbagMaterial_0"
    }
  ],
  "scene": 0,
  "scenes": [
    {
      "name": "Sketchfab_Scene",
      "nodes": [
        0
      ]
    }
  ]
}
