{
  "accessors": [
    {
      "bufferView": 2,
      "componentType": 5126,
      "count": 13631,
      "max": [
        0.41178131103515625,
        0.6301708817481995,
        0.7225521206855774
      ],
      "min": [
        -0.5139457583427429,
        -0.4984528720378876,
        -0.6133952140808105
      ],
      "type": "VEC3"
    },
    {
      "bufferView": 2,
      "byteOffset": 163572,
      "componentType": 5126,
      "count": 13631,
      "max": [
        0.9999958276748657,
        0.9999966025352478,
        0.9999829530715942
      ],
      "min": [
        -0.9983021020889282,
        -0.9957261085510254,
        -0.9999949336051941
      ],
      "type": "VEC3"
    },
    {
      "bufferView": 1,
      "componentType": 5126,
      "count": 13631,
      "max": [
        0.9981876015663147,
        0.9873433113098145
      ],
      "min": [
        0.00041871145367622375,
        0.0018814802169799805
      ],
      "type": "VEC2"
    },
    {
      "bufferView": 1,
      "byteOffset": 109048,
      "componentType": 5126,
      "count": 13631,
      "max": [
        0.9981876015663147,
        0.9873433113098145
      ],
      "min": [
        0.00041871145367622375,
        0.0018814802169799805
      ],
      "type": "VEC2"
    },
    {
      "bufferView": 1,
      "byteOffset": 218096,
      "componentType": 5126,
      "count": 13631,
      "max": [
        0.9981876015663147,
        0.9873433113098145
      ],
      "min": [
        0.00041871145367622375,
        0.0018814802169799805
      ],
      "type": "VEC2"
    },
    {
      "bufferView": 0,
      "componentType": 5125,
      "count": 67515,
      "type": "SCALAR"
    }
  ],
  "asset": {
    "extras": {
      "author": "Alben Tan (https://sketchfab.com/albentan2012)",
      "license": "CC-BY-4.0 (http://creativecommons.org/licenses/by/4.0/)",
      "source": "https://sketchfab.com/3d-models/garbage-disposal-bin-3d-scan-a8751db2d94647ddac226d9d6886164c",
      "title": "Garbage Disposal Bin - 3D scan"
    },
    "generator": "Sketchfab-13.66.0",
    "version": "2.0"
  },
  "bufferViews": [
    {
      "buffer": 0,
      "byteLength": 270060,
      "name": "floatBufferViews",
      "target": 34963
    },
    {
      "buffer": 0,
      "byteLength": 327144,
      "byteOffset": 270060,
      "byteStride": 8,
      "name": "floatBufferViews",
      "target": 34962
    },
    {
      "buffer": 0,
      "byteLength": 327144,
      "byteOffset": 597204,
      "byteStride": 12,
      "name": "floatBufferViews",
      "target": 34962
    }
  ],
  "buffers": [
    {
      "byteLength": 924348,
      "uri": "scene.bin"
    }
  ],
  "images": [
    {
      "uri": "textures/Material_0.003_baseColor.jpeg"
    },
    {
      "uri": "textures/Material_0.003_metallicRoughness.png"
    }
  ],
  "materials": [
    {
      "name": "Material_0.003",
      "pbrMetallicRoughness": {
        "baseColorTexture": {
          "index": 0
        },
        "metallicFactor": 0.0,
        "metallicRoughnessTexture": {
          "index": 1
        }
      }
    }
  ],
  "meshes": [
    {
      "name": "Object_0",
      "primitives": [
        {
          "attributes": {
            "NORMAL": 1,
            "POSITION": 0,
            "TEXCOORD_0": 2,
            "TEXCOORD_1": 3,
            "TEXCOORD_2": 4
          },
          "indices": 5,
          "material": 0,
          "mode": 4
        }
      ]
    }
  ],
  "nodes": [
    {
      "children": [
        1
      ],
      "matrix": [
        1.0,
        0.0,
        0.0,
        0.0,
        0.0,
        2.220446049250313e-16,
        -1.0,
        0.0,
        0.0,
        1.0,
        2.220446049250313e-16,
        0.0,
        0.0,
        0.0,
        0.0,
        1.0
      ],
      "name": "Sketchfab_model"
    },
    {
      "children": [
        2
      ],
      "name": "root"
    },
    {
      "children": [
        3
      ],
      "matrix": [
        1.0,
        0.0,
        0.0,
        0.0,
        0.0,
        2.220446049250313e-16,
        1.0,
        0.0,
        0.0,
        -1.0,
        2.220446049250313e-16,
        0.0,
        0.0,
        0.0,
        0.0,
        1.0
      ],
      "name": "GLTF_SceneRootNode"
    },
    {
      "children": [
        4
      ],
      "matrix": [
        1.0,
        0.0,
        0.0,
        0.0,
        0.0,
        0.9991338087224406,
        0.04161288583827623,
        0.0,
        0.0,
        -0.04161288583827623,
        0.9991338087224406,
        0.0,
        0.0,
        0.0,
        0.0,
        1.0
      ],
      "name": "Mesh_0.003_0"
    },
    {
      "mesh": 0,
      "name": "Object_4"
    }
  ],
  "samplers": [
    {
      "magFilter": 9729,
      "minFilter": 9987,
      "wrapS": 10497,
      "wrapT": 10497
    }
  ],
  "scene": 0,
  "scenes": [
    {
      "name": "Sketchfab_Scene",
      "nodes": [
        0
      ]
    }
  ],
  "textures": [
    {
      "sampler": 0,
      "source": 0
    },
    {
      "sampler": 0,
      "source": 1
    }
  ]
}
