{
  "accessors": [
    {
      "bufferView": 2,
      "componentType": 5126,
      "count": 1537,
      "max": [
        1.1705846786499023,
        2.9095025062561035,
        0.875961184501648
      ],
      "min": [
        -1.1705846786499023,
        -3.157820463180542,
        -1.1300793886184692
      ],
      "type": "VEC3"
    },
    {
      "bufferView": 2,
      "byteOffset": 18444,
      "componentType": 5126,
      "count": 1537,
      "max": [
        1.0,
        0.9961907267570496,
        0.9999771118164063
      ],
      "min": [
        -1.0,
        -0.9940623641014099,
        -0.9999897480010986
      ],
      "type": "VEC3"
    },
    {
      "bufferView": 1,
      "componentType": 5126,
      "count": 1537,
      "max": [
        0.9686997532844543,
        0.9748034477233887
      ],
      "min": [
        0.0088767409324646,
        0.05906251072883606
      ],
      "type": "VEC2"
    },
    {
      "bufferView": 0,
      "componentType": 5125,
      "count": 2430,
      "type": "SCALAR"
    },
    {
      "bufferView": 2,
      "byteOffset": 36888,
      "componentType": 5126,
      "count": 192,
      "max": [
        1.088484764099121,
        1.0884841680526733,
        0.4649357497692108
      ],
      "min": [
        -1.0884846448898315,
        -1.088484764099121,
        -0.4649338722229004
      ],
      "type": "VEC3"
    },
    {
      "bufferView": 2,
      "byteOffset": 39192,
      "componentType": 5126,
      "count": 192,
      "max": [
        0.9951846599578857,
        0.9951847791671753,
        1.0
      ],
      "min": [
        -0.9951847791671753,
        -0.9951847791671753,
        -1.0
      ],
      "type": "VEC3"
    },
    {
      "bufferView": 1,
      "byteOffset": 12296,
      "componentType": 5126,
      "count": 192,
      "max": [
        0.9301854372024536,
        0.7486751079559326
      ],
      "min": [
        0.6472800374031067,
        0.5176222324371338
      ],
      "type": "VEC2"
    },
    {
      "bufferView": 0,
      "byteOffset": 9720,
      "componentType": 5125,
      "count": 372,
      "type": "SCALAR"
    },
    {
      "bufferView": 2,
      "byteOffset": 41496,
      "componentType": 5126,
      "count": 192,
      "max": [
        1.088484764099121,
        1.0884841680526733,
        0.4649357497692108
      ],
      "min": [
        -1.0884846448898315,
        -1.088484764099121,
        -0.4649338722229004
      ],
      "type": "VEC3"
    },
    {
      "bufferView": 2,
      "byteOffset": 43800,
      "componentType": 5126,
      "count": 192,
      "max": [
        0.9951846599578857,
        0.9951847791671753,
        1.0
      ],
      "min": [
        -0.9951847791671753,
        -0.9951847791671753,
        -1.0
      ],
      "type": "VEC3"
    },
    {
      "bufferView": 1,
      "byteOffset": 13832,
      "componentType": 5126,
      "count": 192,
      "max": [
        0.9301854372024536,
        0.7486751079559326
      ],
      "min": [
        0.6472800374031067,
        0.5176222324371338
      ],
      "type": "VEC2"
    },
    {
      "bufferView": 0,
      "byteOffset": 11208,
      "componentType": 5125,
      "count": 372,
      "type": "SCALAR"
    },
    {
      "bufferView": 2,
      "byteOffset": 46104,
      "componentType": 5126,
      "count": 192,
      "max": [
        1.088484525680542,
        1.088484525680542,
        0.4649357795715332
      ],
      "min": [
        -1.088484764099121,
        -1.088484287261963,
        -0.4649338722229004
      ],
      "type": "VEC3"
    },
    {
      "bufferView": 2,
      "byteOffset": 48408,
      "componentType": 5126,
      "count": 192,
      "max": [
        0.9951847195625305,
        0.9951847791671753,
        1.0
      ],
      "min": [
        -0.9951847195625305,
        -0.9951847195625305,
        -1.0
      ],
      "type": "VEC3"
    },
    {
      "bufferView": 1,
      "byteOffset": 15368,
      "componentType": 5126,
      "count": 192,
      "max": [
        0.9301854372024536,
        0.7486751079559326
      ],
      "min": [
        0.6472800374031067,
        0.5176222324371338
      ],
      "type": "VEC2"
    },
    {
      "bufferView": 0,
      "byteOffset": 12696,
      "componentType": 5125,
      "count": 372,
      "type": "SCALAR"
    },
    {
      "bufferView": 2,
      "byteOffset": 50712,
      "componentType": 5126,
      "count": 192,
      "max": [
        1.088484525680542,
        1.0884838104248047,
        0.4649357795715332
      ],
      "min": [
        -1.088484764099121,
        -1.0884852409362793,
        -0.4649338722229004
      ],
      "type": "VEC3"
    },
    {
      "bufferView": 2,
      "byteOffset": 53016,
      "componentType": 5126,
      "count": 192,
      "max": [
        0.9951847195625305,
        0.9951847195625305,
        1.0
      ],
      "min": [
        -0.9951847195625305,
        -0.9951847195625305,
        -1.0
      ],
      "type": "VEC3"
    },
    {
      "bufferView": 1,
      "byteOffset": 16904,
      "componentType": 5126,
      "count": 192,
      "max": [
        0.9301854372024536,
        0.7486751079559326
      ],
      "min": [
        0.6472800374031067,
        0.5176222324371338
      ],
      "type": "VEC2"
    },
    {
      "bufferView": 0,
      "byteOffset": 14184,
      "componentType": 5125,
      "count": 372,
      "type": "SCALAR"
    }
  ],
  "asset": {
    "extras": {
      "author": "sakit.jawa (https://sketchfab.com/sakit.jawa)",
      "license": "CC-BY-4.0 (http://creativecommons.org/licenses/by/4.0/)",
      "source": "https://sketchfab.com/3d-models/13-forrunner-25-g-textured-82e30441125d4321ba1d661fe7c361a0",
      "title": "'13 Forrunner 2.5 G [Textured]"
    },
    "generator": "Sketchfab-16.87.0",
    "version": "2.0"
  },
  "bufferViews": [
    {
      "buffer": 0,
      "byteLength": 15672,
      "name": "floatBufferViews",
      "target": 34963
    },
    {
      "buffer": 0,
      "byteLength": 18440,
      "byteOffset": 15672,
      "byteStride": 8,
      "name": "floatBufferViews",
      "target": 34962
    },
    {
      "buffer": 0,
      "byteLength": 55320,
      "byteOffset": 34112,
      "byteStride": 12,
      "name": "floatBufferViews",
      "target": 34962
    }
  ],
  "buffers": [
    {
      "byteLength": 89432,
      "uri": "scene.bin"
    }
  ],
  "extensionsUsed": [
    "KHR_materials_clearcoat"
  ],
  "images": [
    {
      "uri": "textures/Material.001_baseColor.png"
    }
  ],
  "materials": [
    {
      "doubleSided": true,
      "extensions": {
        "KHR_materials_clearcoat": {
          "clearcoatFactor": 1.0,
          "clearcoatRoughnessFactor": 0.04
        }
      },
      "name": "Material.001",
      "pbrMetallicRoughness": {
        "baseColorTexture": {
          "index": 0
        },
        "metallicFactor": 0.0,
        "roughnessFactor": 0.8211145618000169
      }
    },
    {
      "doubleSided": true,
      "name": "Material.004",
      "pbrMetallicRoughness": {
        "baseColorTexture": {
          "index": 0
        },
        "metallicFactor": 0.0,
        "roughnessFactor": 0.8211145618000169
      }
    },
    {
      "doubleSided": true,
      "name": "Material.002",
      "pbrMetallicRoughness": {
        "baseColorTexture": {
          "index": 0
        },
        "metallicFactor": 0.0,
        "roughnessFactor": 0.8211145618000169
      }
    }
  ],
  "meshes": [
    {
      "name": "Cube_Material.001_0",
      "primitives": [
        {
          "attributes": {
            "NORMAL": 1,
            "POSITION": 0,
            "TEXCOORD_0": 2
          },
          "indices": 3,
          "material": 0,
          "mode": 4
        }
      ]
    },
    {
      "name": "Cylinder.002_Material.004_0",
      "primitives": [
        {
          "attributes": {
            "NORMAL": 5,
            "POSITION": 4,
            "TEXCOORD_0": 6
          },
          "indices": 7,
          "material": 1,
          "mode": 4
        }
      ]
    },
    {
      "name": "Cylinder.001_Material.002_0",
      "primitives": [
        {
          "attributes": {
            "NORMAL": 9,
            "POSITION": 8,
            "TEXCOORD_0": 10
          },
          "indices": 11,
          "material": 2,
          "mode": 4
        }
      ]
    },
    {
      "name": "Cylinder.003_Material.004_0",
      "primitives": [
        {
          "attributes": {
            "NORMAL": 13,
            "POSITION": 12,
            "TEXCOORD_0": 14
          },
          "indices": 15,
          "material": 1,
          "mode": 4
        }
      ]
    },
    {
      "name": "Cylinder.004_Material.002_0",
      "primitives": [
        {
          "attributes": {
            "NORMAL": 17,
            "POSITION": 16,
            "TEXCOORD_0": 18
          },
          "indices": 19,
          "material": 2,
          "mode": 4
        }
      ]
    }
  ],
  "nodes": [
    {
      "children": [
        1
      ],
      "matrix": [
        1.0,
        0.0,
        0.0,
        0.0,
        0.0,
        2.220446049250313e-16,
        -1.0,
        0.0,
        0.0,
        1.0,
        2.220446049250313e-16,
        0.0,
        0.0,
        0.0,
        0.0,
        1.0
      ],
      "name": "Sketchfab_model"
    },
    {
      "children": [
        2
      ],
      "matrix": [
        0.009999999776482582,
        0.0,
        0.0,
        0.0,
        0.0,
        0.0,
        0.009999999776482582,
        0.0,
        0.0,
        -0.009999999776482582,
        0.0,
        0.0,
        0.0,
        0.0,
        0.0,
        1.0
      ],
      "name": "a01536b20d4e4601b43d04b3239aac2f.fbx"
    },
    {
      "children": [
        3,
        5,
        7,
        9,
        11
      ],
      "name": "RootNode"
    },
    {
      "children": [
        4
      ],
      "matrix": [
        1993.6177978515625,
        0.0,
        0.0,
        0.0,
        0.0,
        -0.0003248015660736234,
        -1993.6177978515361,
        0.0,
        0.0,
        1993.6177978515361,
        -0.0003248015660736234,
        0.0,
        0.0,
        0.0,
        0.0,
        1.0
      ],
      "name": "Cube"
    },
    {
      "mesh": 0,
      "name": "Cube_Material.001_0"
    },
    {
      "children": [
        6
      ],
      "matrix": [
        -4.917690987048733,
        -883.9236372640223,
        0.0,
        0.0,
        -3.863753347260049e-05,
        2.1495915806987167e-07,
        883.9373779296866,
        0.0,
        -806.7104157144039,
        4.488116816059329,
        -3.5262979371805756e-05,
        0.0,
        -1869.91845703125,
        -1846.826904296875,
        -3322.83251953125,
        1.0
      ],
      "name": "Cylinder.002"
    },
    {
      "mesh": 1,
      "name": "Cylinder.002_Material.004_0"
    },
    {
      "children": [
        8
      ],
      "matrix": [
        -4.917690987048733,
        -883.9236372640223,
        0.0,
        0.0,
        -3.863753347260049e-05,
        2.1495915806987167e-07,
        883.9373779296866,
        0.0,
        -806.7104157144039,
        4.488116816059329,
        -3.5262979371805756e-05,
        0.0,
        -1869.91845703125,
        -1846.826904296875,
        4073.7080078125,
        1.0
      ],
      "name": "Cylinder.001"
    },
    {
      "mesh": 2,
      "name": "Cylinder.001_Material.002_0"
    },
    {
      "children": [
        10
      ],
      "matrix": [
        -4.917690987048733,
        -883.9236372640223,
        0.0,
        0.0,
        -3.863753347260049e-05,
        2.1495915806987167e-07,
        883.9373779296866,
        0.0,
        -806.7104157144039,
        4.488116816059329,
        -3.5262979371805756e-05,
        0.0,
        1869.917724609375,
        -1846.8271484375,
        -3322.83251953125,
        1.0
      ],
      "name": "Cylinder.003"
    },
    {
      "mesh": 3,
      "name": "Cylinder.003_Material.004_0"
    },
    {
      "children": [
        12
      ],
      "matrix": [
        -4.917690987048733,
        -883.9236372640223,
        0.0,
        0.0,
        -3.863753347260049e-05,
        2.1495915806987167e-07,
        883.9373779296866,
        0.0,
        -806.7104157144039,
        4.488116816059329,
        -3.5262979371805756e-05,
        0.0,
        1869.917724609375,
        -1846.8271484375,
        4073.708251953125,
        1.0
      ],
      "name": "Cylinder.004"
    },
    {
      "mesh": 4,
      "name": "Cylinder.004_Material.002_0"
    }
  ],
  "samplers": [
    {
      "magFilter": 9729,
      "minFilter": 9987,
      "wrapS": 10497,
      "wrapT": 10497
    }
  ],
  "scene": 0,
  "scenes": [
    {
      "name": "Sketchfab_Scene",
      "nodes": [
        0
      ]
    }
  ],
  "textures": [
    {
      "sampler": 0,
      "source": 0
    }
  ]
}
