{
  "accessors": [
    {
      "bufferView": 2,
      "componentType": 5126,
      "count": 2380,
      "max": [
        2.0,
        224.14730834960938,
        8.538335800170898
      ],
      "min": [
        -121.79609680175781,
        -6.87805368215777e-12,
        -8.538335800170898
      ],
      "type": "VEC3"
    },
    {
      "bufferView": 2,
      "byteOffset": 28560,
      "componentType": 5126,
      "count": 2380,
      "max": [
        1.0,
        1.0,
        1.0
      ],
      "min": [
        -1.0,
        -1.0,
        -1.0
      ],
      "type": "VEC3"
    },
    {
      "bufferView": 3,
      "componentType": 5126,
      "count": 2380,
      "max": [
        1.0,
        1.0,
        1.0,
        1.0
      ],
      "min": [
        -1.0,
        -1.0,
        -1.0,
        -1.0
      ],
      "type": "VEC4"
    },
    {
      "bufferView": 1,
      "componentType": 5126,
      "count": 2380,
      "max": [
        0.9987165331840515,
        0.9987165331840515
      ],
      "min": [
        0.0012834541266784072,
        0.005228281021118164
      ],
      "type": "VEC2"
    },
    {
      "bufferView": 0,
      "componentType": 5125,
      "count": 6348,
      "type": "SCALAR"
    },
    {
      "bufferView": 2,
      "byteOffset": 57120,
      "componentType": 5126,
      "count": 3428,
      "max": [
        257.3732604980469,
        400.0,
        4.860000133514404
      ],
      "min": [
        -257.3732604980469,
        0.0,
        -4.860000133514404
      ],
      "type": "VEC3"
    },
    {
      "bufferView": 2,
      "byteOffset": 98256,
      "componentType": 5126,
      "count": 3428,
      "max": [
        1.0,
        1.0,
        1.0
      ],
      "min": [
        -1.0,
        -1.0,
        -1.0
      ],
      "type": "VEC3"
    },
    {
      "bufferView": 3,
      "byteOffset": 38080,
      "componentType": 5126,
      "count": 3428,
      "max": [
        1.0,
        1.0,
        1.0,
        1.0
      ],
      "min": [
        -1.0,
        -1.0,
        -1.0,
        1.0
      ],
      "type": "VEC4"
    },
    {
      "bufferView": 1,
      "byteOffset": 19040,
      "componentType": 5126,
      "count": 3428,
      "max": [
        0.9987221360206604,
        0.9987890720367432
      ],
      "min": [
        0.0012109111994504929,
        0.0012110471725463867
      ],
      "type": "VEC2"
    },
    {
      "bufferView": 0,
      "byteOffset": 25392,
      "componentType": 5125,
      "count": 5196,
      "type": "SCALAR"
    },
    {
      "bufferView": 2,
      "byteOffset": 139392,
      "componentType": 5126,
      "count": 634,
      "max": [
        263.50714111328125,
        341.4360656738281,
        58.21523666381836
      ],
      "min": [
        -263.50714111328125,
        0.0,
        -58.21523666381836
      ],
      "type": "VEC3"
    },
    {
      "bufferView": 2,
      "byteOffset": 147000,
      "componentType": 5126,
      "count": 634,
      "max": [
        1.0,
        1.0,
        1.0
      ],
      "min": [
        -1.0,
        -1.0,
        -1.0
      ],
      "type": "VEC3"
    },
    {
      "bufferView": 3,
      "byteOffset": 92928,
      "componentType": 5126,
      "count": 634,
      "max": [
        1.0,
        0.004002768080681562,
        1.0,
        1.0
      ],
      "min": [
        -1.0,
        -1.0,
        -1.0,
        1.0
      ],
      "type": "VEC4"
    },
    {
      "bufferView": 1,
      "byteOffset": 46464,
      "componentType": 5126,
      "count": 634,
      "max": [
        0.9988513588905334,
        0.9988513588905334
      ],
      "min": [
        0.0011486299335956573,
        0.0052089691162109375
      ],
      "type": "VEC2"
    },
    {
      "bufferView": 0,
      "byteOffset": 46176,
      "componentType": 5125,
      "count": 1014,
      "type": "SCALAR"
    },
    {
      "bufferView": 2,
      "byteOffset": 154608,
      "componentType": 5126,
      "count": 192,
      "max": [
        267.7491149902344,
        404.1507873535156,
        9.289362907409668
      ],
      "min": [
        -267.7491149902344,
        0.0,
        -9.289362907409668
      ],
      "type": "VEC3"
    },
    {
      "bufferView": 2,
      "byteOffset": 156912,
      "componentType": 5126,
      "count": 192,
      "max": [
        1.0,
        1.0,
        1.0
      ],
      "min": [
        -1.0,
        -1.0,
        -1.0
      ],
      "type": "VEC3"
    },
    {
      "bufferView": 3,
      "byteOffset": 103072,
      "componentType": 5126,
      "count": 192,
      "max": [
        0.0745004341006279,
        0.07324901968240738,
        0.2652911841869354,
        1.0
      ],
      "min": [
        -1.0,
        -1.0,
        -0.26528918743133545,
        1.0
      ],
      "type": "VEC4"
    },
    {
      "bufferView": 1,
      "byteOffset": 51536,
      "componentType": 5126,
      "count": 192,
      "max": [
        0.9989241361618042,
        0.9989241361618042
      ],
      "min": [
        0.0010758772259578109,
        0.7192597985267639
      ],
      "type": "VEC2"
    },
    {
      "bufferView": 0,
      "byteOffset": 50232,
      "componentType": 5125,
      "count": 360,
      "type": "SCALAR"
    },
    {
      "bufferView": 2,
      "byteOffset": 159216,
      "componentType": 5126,
      "count": 2380,
      "max": [
        2.0,
        224.14730834960938,
        8.538335800170898
      ],
      "min": [
        -121.79609680175781,
        -6.87805368215777e-12,
        -8.538335800170898
      ],
      "type": "VEC3"
    },
    {
      "bufferView": 2,
      "byteOffset": 187776,
      "componentType": 5126,
      "count": 2380,
      "max": [
        1.0,
        1.0,
        1.0
      ],
      "min": [
        -1.0,
        -1.0,
        -1.0
      ],
      "type": "VEC3"
    },
    {
      "bufferView": 3,
      "byteOffset": 106144,
      "componentType": 5126,
      "count": 2380,
      "max": [
        1.0,
        1.0,
        1.0,
        1.0
      ],
      "min": [
        -1.0,
        -1.0,
        -1.0,
        -1.0
      ],
      "type": "VEC4"
    },
    {
      "bufferView": 1,
      "byteOffset": 53072,
      "componentType": 5126,
      "count": 2380,
      "max": [
        0.9987165331840515,
        0.9987165331840515
      ],
      "min": [
        0.0012834541266784072,
        0.005228281021118164
      ],
      "type": "VEC2"
    },
    {
      "bufferView": 0,
      "byteOffset": 51672,
      "componentType": 5125,
      "count": 6348,
      "type": "SCALAR"
    },
    {
      "bufferView": 2,
      "byteOffset": 216336,
      "componentType": 5126,
      "count": 3428,
      "max": [
        257.3732604980469,
        400.0,
        4.860000133514404
      ],
      "min": [
        -257.3732604980469,
        0.0,
        -4.860000133514404
      ],
      "type": "VEC3"
    },
    {
      "bufferView": 2,
      "byteOffset": 257472,
      "componentType": 5126,
      "count": 3428,
      "max": [
        1.0,
        1.0,
        1.0
      ],
      "min": [
        -1.0,
        -1.0,
        -1.0
      ],
      "type": "VEC3"
    },
    {
      "bufferView": 3,
      "byteOffset": 144224,
      "componentType": 5126,
      "count": 3428,
      "max": [
        1.0,
        1.0,
        1.0,
        1.0
      ],
      "min": [
        -1.0,
        -1.0,
        -1.0,
        1.0
      ],
      "type": "VEC4"
    },
    {
      "bufferView": 1,
      "byteOffset": 72112,
      "componentType": 5126,
      "count": 3428,
      "max": [
        0.9987221360206604,
        0.9987890720367432
      ],
      "min": [
        0.0012109111994504929,
        0.0012110471725463867
      ],
      "type": "VEC2"
    },
    {
      "bufferView": 0,
      "byteOffset": 77064,
      "componentType": 5125,
      "count": 5196,
      "type": "SCALAR"
    },
    {
      "bufferView": 2,
      "byteOffset": 298608,
      "componentType": 5126,
      "count": 634,
      "max": [
        263.50714111328125,
        341.4360656738281,
        58.21523666381836
      ],
      "min": [
        -263.50714111328125,
        0.0,
        -58.21523666381836
      ],
      "type": "VEC3"
    },
    {
      "bufferView": 2,
      "byteOffset": 306216,
      "componentType": 5126,
      "count": 634,
      "max": [
        1.0,
        1.0,
        1.0
      ],
      "min": [
        -1.0,
        -1.0,
        -1.0
      ],
      "type": "VEC3"
    },
    {
      "bufferView": 3,
      "byteOffset": 199072,
      "componentType": 5126,
      "count": 634,
      "max": [
        1.0,
        0.004002768080681562,
        1.0,
        1.0
      ],
      "min": [
        -1.0,
        -1.0,
        -1.0,
        1.0
      ],
      "type": "VEC4"
    },
    {
      "bufferView": 1,
      "byteOffset": 99536,
      "componentType": 5126,
      "count": 634,
      "max": [
        0.9988513588905334,
        0.9988513588905334
      ],
      "min": [
        0.0011486299335956573,
        0.0052089691162109375
      ],
      "type": "VEC2"
    },
    {
      "bufferView": 0,
      "byteOffset": 97848,
      "componentType": 5125,
      "count": 1014,
      "type": "SCALAR"
    },
    {
      "bufferView": 2,
      "byteOffset": 313824,
      "componentType": 5126,
      "count": 192,
      "max": [
        267.7491149902344,
        404.1507873535156,
        9.289362907409668
      ],
      "min": [
        -267.7491149902344,
        0.0,
        -9.289362907409668
      ],
      "type": "VEC3"
    },
    {
      "bufferView": 2,
      "byteOffset": 316128,
      "componentType": 5126,
      "count": 192,
      "max": [
        1.0,
        1.0,
        1.0
      ],
      "min": [
        -1.0,
        -1.0,
        -1.0
      ],
      "type": "VEC3"
    },
    {
      "bufferView": 3,
      "byteOffset": 209216,
      "componentType": 5126,
      "count": 192,
      "max": [
        0.0745004341006279,
        0.07324901968240738,
        0.2652911841869354,
        1.0
      ],
      "min": [
        -1.0,
        -1.0,
        -0.26528918743133545,
        1.0
      ],
      "type": "VEC4"
    },
    {
      "bufferView": 1,
      "byteOffset": 104608,
      "componentType": 5126,
      "count": 192,
      "max": [
        0.9989241361618042,
        0.9989241361618042
      ],
      "min": [
        0.0010758772259578109,
        0.7192597985267639
      ],
      "type": "VEC2"
    },
    {
      "bufferView": 0,
      "byteOffset": 101904,
      "componentType": 5125,
      "count": 360,
      "type": "SCALAR"
    }
  ],
  "asset": {
    "extras": {
      "author": "Mehdi Shahsavan (https://sketchfab.com/ahmagh2e)",
      "license": "CC-BY-4.0 (http://creativecommons.org/licenses/by/4.0/)",
      "source": "https://sketchfab.com/3d-models/mechanical-door-garage-door-20mb-d46996c46d8f4ff9a516f4dbc835b6a5",
      "title": "Mechanical door garage door- 20MB"
    },
    "generator": "Sketchfab-16.15.0",
    "version": "2.0"
  },
  "bufferViews": [
    {
      "buffer": 0,
      "byteLength": 103344,
      "name": "floatBufferViews",
      "target": 34963
    },
    {
      "buffer": 0,
      "byteLength": 106144,
      "byteOffset": 103344,
      "byteStride": 8,
      "name": "floatBufferViews",
      "target": 34962
    },
    {
      "buffer": 0,
      "byteLength": 318432,
      "byteOffset": 209488,
      "byteStride": 12,
      "name": "floatBufferViews",
      "target": 34962
    },
    {
      "buffer": 0,
      "byteLength": 212288,
      "byteOffset": 527920,
      "byteStride": 16,
      "name": "floatBufferViews",
      "target": 34962
    }
  ],
  "buffers": [
    {
      "byteLength": 740208,
      "uri": "scene.bin"
    }
  ],
  "images": [
    {
      "uri": "textures/material_baseColor.png"
    },
    {
      "uri": "textures/material_metallicRoughness.png"
    },
    {
      "uri": "textures/material_normal.png"
    },
    {
      "uri": "textures/material_1_baseColor.png"
    },
    {
      "uri": "textures/material_1_metallicRoughness.png"
    },
    {
      "uri": "textures/material_1_normal.png"
    },
    {
      "uri": "textures/material_2_baseColor.png"
    },
    {
      "uri": "textures/material_2_metallicRoughness.png"
    },
    {
      "uri": "textures/material_2_normal.png"
    },
    {
      "uri": "textures/material_3_baseColor.png"
    },
    {
      "uri": "textures/material_3_metallicRoughness.png"
    },
    {
      "uri": "textures/material_3_normal.png"
    }
  ],
  "materials": [
    {
      "doubleSided": true,
      "name": "material",
      "normalTexture": {
        "index": 2
      },
      "pbrMetallicRoughness": {
        "baseColorTexture": {
          "index": 0
        },
        "metallicRoughnessTexture": {
          "index": 1
        }
      }
    },
    {
      "doubleSided": true,
      "name": "material_1",
      "normalTexture": {
        "index": 5
      },
      "pbrMetallicRoughness": {
        "baseColorTexture": {
          "index": 3
        },
        "metallicRoughnessTexture": {
          "index": 4
        }
      }
    },
    {
      "doubleSided": true,
      "name": "material_2",
      "normalTexture": {
        "index": 8
      },
      "pbrMetallicRoughness": {
        "baseColorTexture": {
          "index": 6
        },
        "metallicRoughnessTexture": {
          "index": 7
        }
      }
    },
    {
      "doubleSided": true,
      "name": "material_3",
      "normalTexture": {
        "index": 11
      },
      "pbrMetallicRoughness": {
        "baseColorTexture": {
          "index": 9
        },
        "metallicRoughnessTexture": {
          "index": 10
        }
      }
    }
  ],
  "meshes": [
    {
      "name": "01_2_01_0",
      "primitives": [
        {
          "attributes": {
            "NORMAL": 1,
            "POSITION": 0,
            "TANGENT": 2,
            "TEXCOORD_0": 3
          },
          "indices": 4,
          "material": 0,
          "mode": 4
        }
      ]
    },
    {
      "name": "02_02_0",
      "primitives": [
        {
          "attributes": {
            "NORMAL": 6,
            "POSITION": 5,
            "TANGENT": 7,
            "TEXCOORD_0": 8
          },
          "indices": 9,
          "material": 1,
          "mode": 4
        }
      ]
    },
    {
      "name": "03_03_0",
      "primitives": [
        {
          "attributes": {
            "NORMAL": 11,
            "POSITION": 10,
            "TANGENT": 12,
            "TEXCOORD_0": 13
          },
          "indices": 14,
          "material": 2,
          "mode": 4
        }
      ]
    },
    {
      "name": "04_04_0",
      "primitives": [
        {
          "attributes": {
            "NORMAL": 16,
            "POSITION": 15,
            "TANGENT": 17,
            "TEXCOORD_0": 18
          },
          "indices": 19,
          "material": 3,
          "mode": 4
        }
      ]
    },
    {
      "name": "01_3_01_0",
      "primitives": [
        {
          "attributes": {
            "NORMAL": 21,
            "POSITION": 20,
            "TANGENT": 22,
            "TEXCOORD_0": 23
          },
          "indices": 24,
          "material": 0,
          "mode": 4
        }
      ]
    },
    {
      "name": "02_3_02_0",
      "primitives": [
        {
          "attributes": {
            "NORMAL": 26,
            "POSITION": 25,
            "TANGENT": 27,
            "TEXCOORD_0": 28
          },
          "indices": 29,
          "material": 1,
          "mode": 4
        }
      ]
    },
    {
      "name": "03_2_03_0",
      "primitives": [
        {
          "attributes": {
            "NORMAL": 31,
            "POSITION": 30,
            "TANGENT": 32,
            "TEXCOORD_0": 33
          },
          "indices": 34,
          "material": 2,
          "mode": 4
        }
      ]
    },
    {
      "name": "04_2_04_0",
      "primitives": [
        {
          "attributes": {
            "NORMAL": 36,
            "POSITION": 35,
            "TANGENT": 37,
            "TEXCOORD_0": 38
          },
          "indices": 39,
          "material": 3,
          "mode": 4
        }
      ]
    }
  ],
  "nodes": [
    {
      "children": [
        1
      ],
      "matrix": [
        1.0,
        0.0,
        0.0,
        0.0,
        0.0,
        2.220446049250313e-16,
        -1.0,
        0.0,
        0.0,
        1.0,
        2.220446049250313e-16,
        0.0,
        0.0,
        0.0,
        0.0,
        1.0
      ],
      "name": "Sketchfab_model"
    },
    {
      "children": [
        2
      ],
      "matrix": [
        0.009999999776482582,
        0.0,
        0.0,
        0.0,
        0.0,
        0.0,
        0.009999999776482582,
        0.0,
        0.0,
        -0.009999999776482582,
        0.0,
        0.0,
        0.0,
        0.0,
        0.0,
        1.0
      ],
      "name": "51b79086daef4abd831b2ce749048235.fbx"
    },
    {
      "children": [
        3,
        5,
        14
      ],
      "name": "RootNode"
    },
    {
      "children": [
        4
      ],
      "matrix": [
        -0.22615717178715578,
        -0.03369362581100545,
        -0.9735079215029236,
        0.0,
        -0.007624384180467804,
        0.9994322085963149,
        -0.03281964634423541,
        0.0,
        0.9740609849568471,
        3.122502256758253e-17,
        -0.22628565483674934,
        0.0,
        857.03173828125,
        197.28517150878906,
        899.3916015625,
        1.0
      ],
      "name": "CINEMA_4D_Editor"
    },
    {
      "name": "Object_4"
    },
    {
      "children": [
        6,
        8,
        10,
        12
      ],
      "matrix": [
        1.0,
        0.0,
        0.0,
        0.0,
        0.0,
        1.0,
        0.0,
        0.0,
        0.0,
        0.0,
        1.0,
        0.0,
        62.4541130065918,
        28.209880828857422,
        11.606468200683594,
        1.0
      ],
      "name": "01"
    },
    {
      "children": [
        7
      ],
      "matrix": [
        1.0,
        0.0,
        0.0,
        0.0,
        0.0,
        1.0,
        0.0,
        0.0,
        0.0,
        0.0,
        1.0,
        0.0,
        187.36233520507813,
        -27.822481155395508,
        -11.606468200683594,
        1.0
      ],
      "name": "01_2"
    },
    {
      "mesh": 0,
      "name": "01_2_01_0"
    },
    {
      "children": [
        9
      ],
      "matrix": [
        1.0,
        0.0,
        0.0,
        0.0,
        0.0,
        1.0,
        0.0,
        0.0,
        0.0,
        0.0,
        1.0,
        0.0,
        -62.4541130065918,
        -27.822481155395508,
        -11.606468200683594,
        1.0
      ],
      "name": "02"
    },
    {
      "mesh": 1,
      "name": "02_02_0"
    },
    {
      "children": [
        11
      ],
      "matrix": [
        1.0,
        0.0,
        0.0,
        0.0,
        0.0,
        1.0,
        0.0,
        0.0,
        0.0,
        0.0,
        1.0,
        0.0,
        -62.4541130065918,
        83.85484313964844,
        34.81940460205078,
        1.0
      ],
      "name": "03"
    },
    {
      "mesh": 2,
      "name": "03_03_0"
    },
    {
      "children": [
        13
      ],
      "matrix": [
        1.0,
        0.0,
        0.0,
        0.0,
        0.0,
        1.0,
        0.0,
        0.0,
        0.0,
        0.0,
        1.0,
        0.0,
        -62.4541130065918,
        -28.209880828857422,
        -11.606468200683594,
        1.0
      ],
      "name": "04"
    },
    {
      "mesh": 3,
      "name": "04_04_0"
    },
    {
      "children": [
        15,
        17,
        19,
        21
      ],
      "matrix": [
        1.0,
        0.0,
        0.0,
        0.0,
        0.0,
        1.0,
        0.0,
        0.0,
        0.0,
        0.0,
        1.0,
        0.0,
        706.3651733398438,
        28.209880828857422,
        11.606468200683594,
        1.0
      ],
      "name": "02_2"
    },
    {
      "children": [
        16
      ],
      "matrix": [
        0.593418886603701,
        0.0,
        -0.8048937973559144,
        0.0,
        0.0,
        1.0,
        0.0,
        0.0,
        0.8048937973559144,
        0.0,
        0.593418886603701,
        0.0,
        187.36233520507813,
        -27.822481155395508,
        -11.606468200683594,
        1.0
      ],
      "name": "01_3"
    },
    {
      "mesh": 4,
      "name": "01_3_01_0"
    },
    {
      "children": [
        18
      ],
      "matrix": [
        1.0,
        0.0,
        0.0,
        0.0,
        0.0,
        1.0,
        0.0,
        0.0,
        0.0,
        0.0,
        1.0,
        0.0,
        -62.4541130065918,
        -27.822481155395508,
        -11.606468200683594,
        1.0
      ],
      "name": "02_3"
    },
    {
      "mesh": 5,
      "name": "02_3_02_0"
    },
    {
      "children": [
        20
      ],
      "matrix": [
        1.0,
        0.0,
        0.0,
        0.0,
        0.0,
        1.0,
        0.0,
        0.0,
        0.0,
        0.0,
        1.0,
        0.0,
        -62.4541130065918,
        83.85484313964844,
        34.81940460205078,
        1.0
      ],
      "name": "03_2"
    },
    {
      "mesh": 6,
      "name": "03_2_03_0"
    },
    {
      "children": [
        22
      ],
      "matrix": [
        1.0,
        0.0,
        0.0,
        0.0,
        0.0,
        1.0,
        0.0,
        0.0,
        0.0,
        0.0,
        1.0,
        0.0,
        -62.4541130065918,
        -28.209880828857422,
        -11.606468200683594,
        1.0
      ],
      "name": "04_2"
    },
    {
      "mesh": 7,
      "name": "04_2_04_0"
    }
  ],
  "samplers": [
    {
      "magFilter": 9729,
      "minFilter": 9987,
      "wrapS": 10497,
      "wrapT": 10497
    }
  ],
  "scene": 0,
  "scenes": [
    {
      "name": "Sketchfab_Scene",
      "nodes": [
        0
      ]
    }
  ],
  "textures": [
    {
      "sampler": 0,
      "source": 0
    },
    {
      "sampler": 0,
      "source": 1
    },
    {
      "sampler": 0,
      "source": 2
    },
    {
      "sampler": 0,
      "source": 3
    },
    {
      "sampler": 0,
      "source": 4
    },
    {
      "sampler": 0,
      "source": 5
    },
    {
      "sampler": 0,
      "source": 6
    },
    {
      "sampler": 0,
      "source": 7
    },
    {
      "sampler": 0,
      "source": 8
    },
    {
      "sampler": 0,
      "source": 9
    },
    {
      "sampler": 0,
      "source": 10
    },
    {
      "sampler": 0,
      "source": 11
    }
  ]
}
