{
  "accessors": [
    {
      "bufferView": 2,
      "componentType": 5126,
      "count": 65532,
      "max": [
        0.2110387086868286,
        0.9597246646881104,
        1.2651722431182861
      ],
      "min": [
        -0.04671578109264374,
        -1.160361409187317,
        -1.35602867603302
      ],
      "type": "VEC3"
    },
    {
      "bufferView": 2,
      "byteOffset": 786384,
      "componentType": 5126,
      "count": 65532,
      "max": [
        0.9999799728393555,
        1.0,
        1.0
      ],
      "min": [
        -0.9999992847442627,
        -1.0,
        -0.9999862313270569
      ],
      "type": "VEC3"
    },
    {
      "bufferView": 1,
      "componentType": 5126,
      "count": 65532,
      "max": [
        0.998015284538269,
        0.9852083921432495
      ],
      "min": [
        0.0005743913352489471,
        0.041636765003204346
      ],
      "type": "VEC2"
    },
    {
      "bufferView": 0,
      "componentType": 5125,
      "count": 67242,
      "type": "SCALAR"
    },
    {
      "bufferView": 2,
      "byteOffset": 1572768,
      "componentType": 5126,
      "count": 65533,
      "max": [
        0.21433472633361816,
        0.9545366168022156,
        1.2270574569702148
      ],
      "min": [
        -0.03933792933821678,
        -1.1602832078933716,
        -1.3517298698425293
      ],
      "type": "VEC3"
    },
    {
      "bufferView": 2,
      "byteOffset": 2359164,
      "componentType": 5126,
      "count": 65533,
      "max": [
        0.9996333718299866,
        0.9999887943267822,
        0.9999638199806213
      ],
      "min": [
        -0.9999998211860657,
        -1.0,
        -0.9999959468841553
      ],
      "type": "VEC3"
    },
    {
      "bufferView": 1,
      "byteOffset": 524256,
      "componentType": 5126,
      "count": 65533,
      "max": [
        0.9979456663131714,
        0.9815452098846436
      ],
      "min": [
        0.003114882856607437,
        0.10328340530395508
      ],
      "type": "VEC2"
    },
    {
      "bufferView": 0,
      "byteOffset": 268968,
      "componentType": 5125,
      "count": 65535,
      "type": "SCALAR"
    },
    {
      "bufferView": 2,
      "byteOffset": 3145560,
      "componentType": 5126,
      "count": 65532,
      "max": [
        0.21064996719360352,
        0.9570724964141846,
        1.2647755146026611
      ],
      "min": [
        -0.04531574249267578,
        -1.160072684288025,
        -0.5664445161819458
      ],
      "type": "VEC3"
    },
    {
      "bufferView": 2,
      "byteOffset": 3931944,
      "componentType": 5126,
      "count": 65532,
      "max": [
        0.987146258354187,
        0.9999760985374451,
        0.9999911785125732
      ],
      "min": [
        -0.9999999403953552,
        -0.9999930262565613,
        -0.9999989867210388
      ],
      "type": "VEC3"
    },
    {
      "bufferView": 1,
      "byteOffset": 1048520,
      "componentType": 5126,
      "count": 65532,
      "max": [
        0.9978165626525879,
        0.9847539663314819
      ],
      "min": [
        0.004642341285943985,
        0.10698652267456055
      ],
      "type": "VEC2"
    },
    {
      "bufferView": 0,
      "byteOffset": 531108,
      "componentType": 5125,
      "count": 65532,
      "type": "SCALAR"
    },
    {
      "bufferView": 2,
      "byteOffset": 4718328,
      "componentType": 5126,
      "count": 65532,
      "max": [
        0.19642966985702515,
        0.9552599191665649,
        1.2646992206573486
      ],
      "min": [
        -0.03785669803619385,
        -1.1602500677108765,
        -1.3489717245101929
      ],
      "type": "VEC3"
    },
    {
      "bufferView": 2,
      "byteOffset": 5504712,
      "componentType": 5126,
      "count": 65532,
      "max": [
        0.9957659840583801,
        0.999837338924408,
        0.9999873638153076
      ],
      "min": [
        -1.0,
        -0.9999924898147583,
        -0.9999997615814209
      ],
      "type": "VEC3"
    },
    {
      "bufferView": 1,
      "byteOffset": 1572776,
      "componentType": 5126,
      "count": 65532,
      "max": [
        0.9983525276184082,
        0.9850921630859375
      ],
      "min": [
        0.0005841553211212158,
        0.0011728405952453613
      ],
      "type": "VEC2"
    },
    {
      "bufferView": 0,
      "byteOffset": 793236,
      "componentType": 5125,
      "count": 65532,
      "type": "SCALAR"
    },
    {
      "bufferView": 2,
      "byteOffset": 6291096,
      "componentType": 5126,
      "count": 26019,
      "max": [
        0.18780574202537537,
        0.9560774564743042,
        1.2517284154891968
      ],
      "min": [
        -0.029923779889941216,
        -1.159644365310669,
        -1.3520556688308716
      ],
      "type": "VEC3"
    },
    {
      "bufferView": 2,
      "byteOffset": 6603324,
      "componentType": 5126,
      "count": 26019,
      "max": [
        0.9990671873092651,
        0.9995714426040649,
        0.8121799826622009
      ],
      "min": [
        -0.9999985694885254,
        -0.9999971985816956,
        -0.9999523162841797
      ],
      "type": "VEC3"
    },
    {
      "bufferView": 1,
      "byteOffset": 2097032,
      "componentType": 5126,
      "count": 26019,
      "max": [
        0.9940095543861389,
        0.9736453890800476
      ],
      "min": [
        0.009200218133628368,
        0.07848817110061646
      ],
      "type": "VEC2"
    },
    {
      "bufferView": 0,
      "byteOffset": 1055364,
      "componentType": 5125,
      "count": 26019,
      "type": "SCALAR"
    }
  ],
  "asset": {
    "extras": {
      "author": "Alben Tan (https://sketchfab.com/albentan2012)",
      "license": "CC-BY-4.0 (http://creativecommons.org/licenses/by/4.0/)",
      "source": "https://sketchfab.com/3d-models/electric-meters-and-panels-1-ec17e89b49a5436b8b329b5c05e905c4",
      "title": "Electric Meters And Panels 1"
    },
    "generator": "Sketchfab-13.68.0",
    "version": "2.0"
  },
  "bufferViews": [
    {
      "buffer": 0,
      "byteLength": 1159440,
      "name": "floatBufferViews",
      "target": 34963
    },
    {
      "buffer": 0,
      "byteLength": 2305184,
      "byteOffset": 1159440,
      "byteStride": 8,
      "name": "floatBufferViews",
      "target": 34962
    },
    {
      "buffer": 0,
      "byteLength": 6915552,
      "byteOffset": 3464624,
      "byteStride": 12,
      "name": "floatBufferViews",
      "target": 34962
    }
  ],
  "buffers": [
    {
      "byteLength": 10380176,
      "uri": "scene.bin"
    }
  ],
  "images": [
    {
      "uri": "textures/Material_0.005_baseColor.jpeg"
    }
  ],
  "materials": [
    {
      "name": "Material_0.005",
      "pbrMetallicRoughness": {
        "baseColorTexture": {
          "index": 0
        },
        "metallicFactor": 0.0
      }
    }
  ],
  "meshes": [
    {
      "name": "Object_0",
      "primitives": [
        {
          "attributes": {
            "NORMAL": 1,
            "POSITION": 0,
            "TEXCOORD_0": 2
          },
          "indices": 3,
          "material": 0,
          "mode": 4
        }
      ]
    },
    {
      "name": "Object_1",
      "primitives": [
        {
          "attributes": {
            "NORMAL": 5,
            "POSITION": 4,
            "TEXCOORD_0": 6
          },
          "indices": 7,
          "material": 0,
          "mode": 4
        }
      ]
    },
    {
      "name": "Object_2",
      "primitives": [
        {
          "attributes": {
            "NORMAL": 9,
            "POSITION": 8,
            "TEXCOORD_0": 10
          },
          "indices": 11,
          "material": 0,
          "mode": 4
        }
      ]
    },
    {
      "name": "Object_3",
      "primitives": [
        {
          "attributes": {
            "NORMAL": 13,
            "POSITION": 12,
            "TEXCOORD_0": 14
          },
          "indices": 15,
          "material": 0,
          "mode": 4
        }
      ]
    },
    {
      "name": "Object_4",
      "primitives": [
        {
          "attributes": {
            "NORMAL": 17,
            "POSITION": 16,
            "TEXCOORD_0": 18
          },
          "indices": 19,
          "material": 0,
          "mode": 4
        }
      ]
    }
  ],
  "nodes": [
    {
      "children": [
        1
      ],
      "matrix": [
        1.0,
        0.0,
        0.0,
        0.0,
        0.0,
        2.220446049250313e-16,
        -1.0,
        0.0,
        0.0,
        1.0,
        2.220446049250313e-16,
        0.0,
        0.0,
        0.0,
        0.0,
        1.0
      ],
      "name": "Sketchfab_model"
    },
    {
      "children": [
        2
      ],
      "name": "root"
    },
    {
      "children": [
        3
      ],
      "matrix": [
        1.0,
        0.0,
        0.0,
        0.0,
        0.0,
        2.220446049250313e-16,
        1.0,
        0.0,
        0.0,
        -1.0,
        2.220446049250313e-16,
        0.0,
        0.0,
        0.0,
        0.0,
        1.0
      ],
      "name": "GLTF_SceneRootNode"
    },
    {
      "children": [
        4,
        5,
        6,
        7,
        8
      ],
      "name": "Mesh_0.005_0"
    },
    {
      "mesh": 0,
      "name": "Object_4"
    },
    {
      "mesh": 1,
      "name": "Object_5"
    },
    {
      "mesh": 2,
      "name": "Object_6"
    },
    {
      "mesh": 3,
      "name": "Object_7"
    },
    {
      "mesh": 4,
      "name": "Object_8"
    }
  ],
  "samplers": [
    {
      "magFilter": 9729,
      "minFilter": 9987,
      "wrapS": 10497,
      "wrapT": 10497
    }
  ],
  "scene": 0,
  "scenes": [
    {
      "name": "Sketchfab_Scene",
      "nodes": [
        0
      ]
    }
  ],
  "textures": [
    {
      "sampler": 0,
      "source": 0
    }
  ]
}
