{
  "accessors": [
    {
      "bufferView": 2,
      "componentType": 5126,
      "count": 962,
      "max": [
        25.93292999267578,
        29.346799850463867,
        76.33944702148438
      ],
      "min": [
        -25.93292999267578,
        -28.895597457885742,
        -0.21337099373340607
      ],
      "type": "VEC3"
    },
    {
      "bufferView": 2,
      "byteOffset": 11544,
      "componentType": 5126,
      "count": 962,
      "max": [
        1.0,
        0.9975175261497498,
        0.9999690055847168
      ],
      "min": [
        -1.0,
        -0.9975107908248901,
        -0.9999697804450989
      ],
      "type": "VEC3"
    },
    {
      "bufferView": 3,
      "componentType": 5126,
      "count": 962,
      "max": [
        1.0,
        0.9988859295845032,
        0.9549325704574585,
        1.0
      ],
      "min": [
        -0.9977949261665344,
        -0.9963383078575134,
        -0.9821031093597412,
        1.0
      ],
      "type": "VEC4"
    },
    {
      "bufferView": 1,
      "componentType": 5126,
      "count": 962,
      "max": [
        0.9941409826278687,
        0.9909210205078125
      ],
      "min": [
        0.00684700021520257,
        0.010254000313580036
      ],
      "type": "VEC2"
    },
    {
      "bufferView": 1,
      "byteOffset": 7696,
      "componentType": 5126,
      "count": 962,
      "max": [
        0.9804689884185791,
        0.9919360280036926
      ],
      "min": [
        0.008063999935984612,
        0.016112999990582466
      ],
      "type": "VEC2"
    },
    {
      "bufferView": 0,
      "componentType": 5125,
      "count": 3144,
      "type": "SCALAR"
    }
  ],
  "asset": {
    "extras": {
      "author": "Jazavac (https://sketchfab.com/Jazavac)",
      "license": "CC-BY-4.0 (http://creativecommons.org/licenses/by/4.0/)",
      "source": "https://sketchfab.com/3d-models/plastic-chair-be3d5131e634424e89ffd57ebb19804e",
      "title": "Plastic Chair"
    },
    "generator": "Sketchfab-13.82.0",
    "version": "2.0"
  },
  "bufferViews": [
    {
      "buffer": 0,
      "byteLength": 12576,
      "name": "floatBufferViews",
      "target": 34963
    },
    {
      "buffer": 0,
      "byteLength": 15392,
      "byteOffset": 12576,
      "byteStride": 8,
      "name": "floatBufferViews",
      "target": 34962
    },
    {
      "buffer": 0,
      "byteLength": 23088,
      "byteOffset": 27968,
      "byteStride": 12,
      "name": "floatBufferViews",
      "target": 34962
    },
    {
      "buffer": 0,
      "byteLength": 15392,
      "byteOffset": 51056,
      "byteStride": 16,
      "name": "floatBufferViews",
      "target": 34962
    }
  ],
  "buffers": [
    {
      "byteLength": 66448,
      "uri": "scene.bin"
    }
  ],
  "images": [
    {
      "uri": "textures/MI_Plastic_Chair_01_baseColor.jpeg"
    },
    {
      "uri": "textures/MI_Plastic_Chair_01_metallicRoughness.png"
    },
    {
      "uri": "textures/MI_Plastic_Chair_01_normal.png"
    }
  ],
  "materials": [
    {
      "doubleSided": true,
      "name": "MI_Plastic_Chair_01",
      "normalTexture": {
        "index": 2
      },
      "occlusionTexture": {
        "index": 1
      },
      "pbrMetallicRoughness": {
        "baseColorTexture": {
          "index": 0
        },
        "metallicRoughnessTexture": {
          "index": 1
        }
      }
    }
  ],
  "meshes": [
    {
      "name": "defaultMaterial",
      "primitives": [
        {
          "attributes": {
            "NORMAL": 1,
            "POSITION": 0,
            "TANGENT": 2,
            "TEXCOORD_0": 3,
            "TEXCOORD_1": 4
          },
          "indices": 5,
          "material": 0,
          "mode": 4
        }
      ]
    }
  ],
  "nodes": [
    {
      "children": [
        1
      ],
      "matrix": [
        1.0,
        0.0,
        0.0,
        0.0,
        0.0,
        2.220446049250313e-16,
        -1.0,
        0.0,
        0.0,
        1.0,
        2.220446049250313e-16,
        0.0,
        0.0,
        0.0,
        0.0,
        1.0
      ],
      "name": "Sketchfab_model"
    },
    {
      "children": [
        2
      ],
      "matrix": [
        1.0,
        0.0,
        0.0,
        0.0,
        0.0,
        -4.371139006309477e-08,
        0.999999999999999,
        0.0,
        0.0,
        -0.999999999999999,
        -4.371139006309477e-08,
        0.0,
        0.0,
        0.0,
        0.0,
        1.0
      ],
      "name": "Collada visual scene group"
    },
    {
      "children": [
        3
      ],
      "matrix": [
        0.0,
        0.0,
        1.0,
        0.0,
        1.0,
        0.0,
        0.0,
        0.0,
        0.0,
        1.0,
        0.0,
        0.0,
        1030.0,
        100.0,
        19.999998,
        1.0
      ],
      "name": "SM_Plastic_Chair_01_78"
    },
    {
      "children": [
        4
      ],
      "matrix": [
        1.0,
        0.0,
        0.0,
        0.0,
        0.0,
        1.0,
        0.0,
        0.0,
        0.0,
        0.0,
        1.0,
        0.0,
        230.000015,
        -1070.489868,
        0.0,
        1.0
      ],
      "name": "SM_Plastic_Chair_01_78_LOD0"
    },
    {
      "mesh": 0,
      "name": "defaultMaterial"
    }
  ],
  "samplers": [
    {
      "magFilter": 9729,
      "minFilter": 9987,
      "wrapS": 10497,
      "wrapT": 10497
    }
  ],
  "scene": 0,
  "scenes": [
    {
      "name": "Sketchfab_Scene",
      "nodes": [
        0
      ]
    }
  ],
  "textures": [
    {
      "sampler": 0,
      "source": 0
    },
    {
      "sampler": 0,
      "source": 1
    },
    {
      "sampler": 0,
      "source": 2
    }
  ]
}
